<svg width="32" height="32" viewBox="0 0 32 32" fill="none" xmlns="http://www.w3.org/2000/svg">
<g clip-path="url(#clip0_325_2623)">
<rect width="32" height="32" fill="#F22749"/>
<path d="M6 15.5L-0.5 13L-3 18L4.5 20L5 20.5L6.5 22L10 24L18 25.5H23.5L26.5 23.5L27.5 22V21V19.5L12.5 13V12.5L13.5 11L14 9V7.5L13 6L11.5 5L11 5.5V6.5L11.5 8L11 10L10 11L7.5 12.5L6 15.5Z" fill="#83CBFC"/>
<path d="M-23.3305 4.7625L-23.5183 5.46329C-23.4004 5.49554 -23.2756 5.53367 -23.1477 5.55553L-22.9268 5.59334C-22.8588 5.60494 -22.7983 5.62051 -22.7315 5.63905C-22.5755 5.68235 -22.4586 5.67241 -22.2672 5.71898L-21.719 5.85242L-21.5182 5.89059L-21.0644 5.98611C-21.0347 5.99236 -20.971 5.99511 -20.9457 6.00466L-20.6471 6.11952C-20.535 6.16261 -20.4148 6.15846 -20.2546 6.19606C-20.1923 6.21059 -19.8337 6.37469 -19.6947 6.41664L-19.3269 6.5278L-19.1531 6.58762C-19.0357 6.62807 -18.9231 6.65845 -18.8072 6.70018L-18.5971 6.77573L-18.3676 6.85667L-18.068 6.95493C-18.0118 6.9734 -17.8467 6.99539 -17.7721 7.02993C-17.6537 7.08475 -17.5467 7.12433 -17.4224 7.1621C-17.3501 7.18406 -17.2662 7.22642 -17.1943 7.23672C-17.078 7.25354 -16.9847 7.27449 -16.8802 7.32044L-16.7123 7.39449L-16.4674 7.49862L-16.2742 7.57883L-16.1161 7.64106C-16.0675 7.66029 -16.0239 7.68286 -15.9729 7.70788C-15.8522 7.76737 -15.7088 7.77971 -15.5815 7.81767C-15.4966 7.84298 -15.3891 7.88075 -15.3169 7.90632C-15.2918 8.00346 -15.2643 7.95076 -15.0634 8.04586C-14.968 8.0911 -14.8791 8.12261 -14.7795 8.15315L-14.647 8.19377L-14.458 8.27092L-14.1463 8.36342L-14.026 8.3991C-13.9564 8.41988 -13.87 8.44731 -13.805 8.47903L-13.6049 8.57693C-13.2877 8.73183 -13.386 8.63793 -13.0776 8.7492L-12.992 8.81599L-12.7233 8.90979L-12.4558 9.00948C-12.3882 9.03463 -12.3136 9.08628 -12.2481 9.10576C-12.1042 9.14837 -12.1107 9.16265 -11.9054 9.21769C-11.5465 9.31384 -11.7406 9.2879 -11.5445 9.34708L-11.365 9.40116C-11.3191 9.41496 -11.2639 9.45563 -11.22 9.47295C-11.0739 9.53069 -10.9275 9.56223 -10.7723 9.60317C-10.7207 9.61678 -10.6709 9.65023 -10.622 9.67552C-10.5156 9.73054 -10.374 9.73555 -10.2771 9.79382L-10.162 9.86271C-10.1495 9.85815 -10.1766 9.86799 -10.2005 9.87656L-9.87591 9.98362C-9.84822 9.99275 -9.79559 10.0376 -9.76362 10.0464C-9.43944 10.1361 -9.57193 10.1354 -9.49698 10.1564L-9.22542 10.2323L-9.15901 10.2758C-9.14434 10.2741 -9.13159 10.2726 -9.13528 10.2732C-9.10974 10.3129 -9.07321 10.3578 -9.03198 10.3695L-8.55822 10.503L-8.47395 10.5603L-8.2138 10.6374L-8.13267 10.6947L-7.71007 10.8145C-7.69874 10.8176 -7.4982 10.9508 -7.49488 10.9517L-6.93618 11.1096L-6.85267 11.1657C-6.94063 11.1067 -6.1344 11.4044 -6.14807 11.4007L-5.54481 11.5688L-5.44101 11.6312L-5.17905 11.6993C-5.14893 11.7071 -5.10502 11.7424 -5.07624 11.7553L-4.89518 11.8363C-4.83221 11.8645 -4.79012 11.9042 -4.7181 11.8728L-4.63616 11.927C-4.48848 11.9765 -4.32299 12.0063 -4.18139 12.0667C-4.10517 12.0993 -4.04489 12.1336 -3.96135 12.1568C-3.92202 12.1678 -3.87681 12.2107 -3.83765 12.2231L-3.45326 12.3458L-3.30363 12.4231L-3.19251 12.4809L-2.89921 12.5819C-2.81471 12.611 -2.75496 12.6558 -2.6556 12.6763C-2.62244 12.6821 -2.61168 12.6842 -2.64947 12.6433C-2.43559 12.6892 -2.44959 12.7188 -2.21224 12.7921L-1.90027 12.8883L-1.7554 12.963C-1.66588 13.0092 -1.5972 12.9513 -1.2844 13.142C-1.2234 13.1791 -1.16589 13.212 -1.09128 13.2241C-1.02206 13.2352 -0.962292 13.2863 -0.906457 13.3059C-0.696856 13.3796 -0.497865 13.4265 -0.281435 13.4888L-0.33139 13.5034L-0.276173 13.5223C-0.216717 13.5425 -0.159018 13.5599 -0.0970895 13.5748C0.00292981 13.599 0.0910405 13.656 0.184394 13.6887C0.364428 13.7517 0.545516 13.7888 0.731421 13.8393C0.79175 13.8555 0.850299 13.8947 0.90132 13.9167L1.18585 14.0395C1.56566 14.2035 1.44628 14.0024 1.69955 14.174C1.79341 14.2376 1.86466 14.1966 2.11092 14.3295C2.16958 14.3613 2.2666 14.3881 2.33021 14.3866C2.51054 14.3821 2.38453 14.3721 2.53715 14.4358L2.69036 14.4998C2.71595 14.5105 2.76981 14.5555 2.79606 14.5629L3.61471 14.7908L3.75777 14.87C3.60361 14.7847 4.30112 15.0562 4.1792 15.0231L4.3776 15.0769C4.39889 15.0826 4.44194 15.1258 4.46081 15.1428L4.47671 15.1343C4.47963 15.1194 4.48044 15.1047 4.48483 15.1087C4.49123 15.1144 4.51152 15.1363 4.51904 15.1403L4.61724 15.1916C4.66938 15.2188 4.69658 15.2704 4.7426 15.2517L4.77519 15.2386C4.80476 15.2267 4.77894 15.2691 4.86474 15.2926C5.05333 15.3439 5.26616 15.3931 5.45613 15.4619C5.63427 15.5265 5.67846 15.6498 5.88859 15.6208C5.92424 15.6158 6.00311 15.644 6.03515 15.6314C6.07586 15.6154 6.13553 15.5965 6.16392 15.5804L6.32116 15.491C6.36386 15.4667 6.40594 15.3854 6.4334 15.3376C6.55584 15.1244 6.44749 15.2499 6.57464 15.0167L6.66609 14.8488L6.72867 14.6855C6.69581 14.7714 6.90937 14.2751 6.88297 14.351L6.96201 14.1239C7.00203 14.0089 7.09548 13.9476 7.17702 13.7995L7.25908 13.6502C7.27503 13.6211 7.30765 13.5751 7.32985 13.5454L7.54876 13.254C7.57803 13.215 7.62377 13.1685 7.65884 13.1298C7.84991 12.9189 7.76886 12.9589 7.91775 12.7688C8.01934 12.7098 8.08518 12.6492 8.15994 12.5576L8.18269 12.5297C8.2185 12.4859 8.21388 12.5109 8.23011 12.4941L8.305 12.4169L8.7273 12.1615C8.73029 12.1597 8.75013 12.1278 8.75285 12.1247L8.77162 12.1038C8.77458 12.1006 8.78808 12.0939 8.79604 12.0892L8.82047 12.0746L8.84534 12.0599L8.8702 12.0452L8.89477 12.0308L8.91909 12.0166L8.94391 12.002L8.96977 11.9867L9.5158 11.664L9.55153 11.6665C9.56756 11.6676 9.59204 11.6527 9.60666 11.6443L9.62899 11.6312C9.65773 11.6145 9.65381 11.6167 9.6741 11.5933L9.69611 11.5682L9.71676 11.5442C9.73258 11.5258 9.75353 11.5265 9.7696 11.5235L9.80046 11.5177L9.82773 11.5119C9.83128 11.5112 9.85105 11.5006 9.85487 11.4989L9.86916 11.4854C9.85269 11.4641 9.83726 11.4443 9.85827 11.4714C9.92462 11.4549 9.97896 11.4419 10.0216 11.4116L10.2119 11.2768C10.244 11.2542 10.2837 11.1746 10.3201 11.1521C10.3838 11.1127 10.4695 11.0792 10.5165 11.0337L10.7245 10.8313C10.7839 10.7735 10.8278 10.6745 10.8893 10.6249C10.9972 10.5375 11.0644 10.4187 11.1373 10.3155C11.1623 10.28 11.2187 10.2319 11.2427 10.1921L11.3118 10.0779L11.391 9.94729L11.4747 9.81214C11.5042 9.76446 11.5266 9.70524 11.5434 9.64005C11.5634 9.56329 11.6049 9.49488 11.6313 9.42455C11.7019 9.23587 11.7581 9.03262 11.7896 8.83367C11.8026 8.75163 11.7978 8.66953 11.8263 8.58371C11.8479 8.51873 11.848 8.45569 11.8486 8.39172L11.8504 8.22349L11.8543 8.06505C11.8555 8.01789 11.833 7.96119 11.8262 7.91789L11.7869 7.66599C11.7584 7.48215 11.8142 7.49326 11.7419 7.26413L11.7017 7.24545C11.6954 7.23907 11.6881 7.23113 11.6925 7.23594L11.7164 7.21796C11.6975 7.17121 11.6856 7.14386 11.6794 7.11442L11.5745 6.61271C11.5665 6.57464 11.5179 6.50368 11.5042 6.46965C11.5132 6.4492 11.5213 6.43873 11.5164 6.43573C11.4186 6.37445 11.4091 6.3129 11.3491 6.18543L11.3052 6.09176C11.28 6.05059 11.2622 6.01782 11.2458 5.97365L11.2115 5.88215C11.2032 5.86004 11.2509 5.81082 11.2608 5.78802C11.3295 5.62768 11.4919 5.51277 11.6739 5.57008C11.7102 5.58151 11.773 5.59516 11.8047 5.59403L11.941 5.58862C11.9463 5.58833 11.9687 5.57083 11.9742 5.57165C12.0335 5.58155 12.1576 5.60541 12.2083 5.63803L12.3194 5.70992C12.4268 5.77931 12.5244 5.8557 12.6223 5.93389L12.7857 6.06427C12.824 6.09484 13.1019 6.40342 13.1537 6.47141C13.31 6.67641 13.4272 6.86198 13.5351 7.10063C13.5707 7.17944 13.6025 7.2472 13.6512 7.32311C13.6697 7.3518 13.6909 7.41478 13.7121 7.45295C13.7554 7.53105 13.793 7.61104 13.8101 7.69708L13.8876 8.08881C13.9062 8.18273 13.9048 8.28327 13.9093 8.37813L13.9216 8.64142C13.9264 8.74468 13.922 8.88121 13.8953 8.98866C13.8781 9.05825 13.879 9.13075 13.8683 9.19781C13.838 9.39217 13.7981 9.59206 13.7159 9.7708L13.6446 9.92575C13.5653 10.0984 13.612 9.9756 13.4827 10.1731L13.4101 10.2839C13.3829 10.3256 13.3631 10.3673 13.3343 10.4231C13.3 10.4902 13.1902 10.5519 13.0781 10.7055L12.9461 10.8863L12.8169 11.0634L12.6831 11.2432L12.5496 11.4219L12.4928 11.5059C12.4274 11.6023 12.3282 11.6812 12.2738 11.7853C12.1419 12.0367 12.0471 12.389 11.9996 12.6701C11.9799 12.7867 12.0205 12.9186 12.0118 13.0411C12.0095 13.0736 12.0324 13.1227 12.0403 13.1533L12.126 13.491C12.1407 13.5492 12.1543 13.7932 12.166 13.8564L12.2839 14.4877C12.2936 14.5397 12.3004 14.8434 12.297 14.9137L12.2878 15.1028L12.2785 15.2975C12.2748 15.3762 12.227 15.5123 12.215 15.5875C12.2119 15.6076 12.2281 15.6691 12.223 15.6874L12.0079 16.4762C11.9966 16.5183 11.9402 16.5874 11.9217 16.622L11.8396 16.7747C11.693 17.0467 11.8376 16.8383 11.6332 17.153C11.604 17.198 11.5681 17.2249 11.5259 17.2598C11.4066 17.3582 11.2023 17.5671 11.1063 17.6885C11.0801 17.7215 11.0999 17.8358 11.1228 17.8683C11.1552 17.9139 11.2226 17.9715 11.2687 18.0119C11.3442 18.0783 11.4309 18.0829 11.5232 18.0561L11.6802 18.0108C11.687 18.0087 11.7148 17.9916 11.7212 17.9873L11.9027 17.8685C11.958 17.8323 12.0194 17.7484 12.0591 17.6892C12.1745 17.517 12.1518 17.6657 12.3506 17.302C12.3864 17.2363 12.4391 17.1654 12.4723 17.0967L12.5488 16.9384C12.6466 16.7359 12.6837 16.511 12.7381 16.2898L12.8674 15.7659L12.8764 15.6012C12.8797 15.5411 12.8897 15.4873 12.8917 15.4331L12.899 15.2356C12.9001 15.2041 12.9201 15.132 12.919 15.1007L12.9141 14.9544L12.9121 14.8175C12.9092 14.6298 12.8674 14.6781 12.8618 14.5357L12.8559 14.3836L12.8489 14.2363L12.833 13.9902C12.8321 13.9748 12.8323 13.9454 12.8382 13.9356L12.9058 13.8263C12.9263 13.8187 13.0018 13.7969 13.0321 13.805L13.592 13.9535L13.7034 14.0235C13.7606 14.0594 13.8877 14.0729 13.9606 14.1079C13.995 14.1241 14.0434 14.1604 14.0719 14.168L14.1147 14.1795L14.3744 14.2536C14.3318 14.2751 14.3146 14.2837 14.3445 14.2689C14.3953 14.2878 14.4246 14.3019 14.4547 14.3102L14.8102 14.4093L14.9206 14.473L15.1651 14.5514C15.1695 14.5663 15.1688 14.5791 15.1756 14.5811L15.2217 14.5956L15.3766 14.6532C15.3796 14.6544 15.3957 14.6771 15.398 14.6797C15.4314 14.7156 15.7244 14.7697 15.86 14.8306L16.0571 14.9194C16.0747 14.9273 16.1021 14.9446 16.114 14.9538L16.141 14.9743C16.1455 14.9777 16.1695 14.9841 16.1797 14.9868L16.413 15.051L16.4641 15.0985L16.5321 15.1014C16.5578 15.1174 16.57 15.1233 16.5827 15.1141L16.709 15.1904C16.7251 15.2003 16.7618 15.229 16.7812 15.2348L16.9657 15.2911C16.9691 15.292 16.9876 15.3158 16.9936 15.3231L17.0212 15.3201C17.0736 15.314 17.0528 15.3537 17.2617 15.4063C17.3478 15.4279 17.4153 15.462 17.4929 15.4988C17.5801 15.5404 17.679 15.5592 17.7795 15.5927C17.8194 15.6062 18.0093 15.7674 18.0611 15.7836L18.5188 15.9279C18.4773 15.9148 18.8018 16.0555 18.8236 16.0681L18.9318 16.1318C18.9586 16.1475 18.9884 16.1619 19.0222 16.1789L19.1419 16.239C19.323 16.3298 19.3822 16.2807 19.5553 16.3946C19.5589 16.3969 19.5773 16.4046 19.5875 16.4088C19.802 16.5009 19.692 16.4881 19.8699 16.5341C19.8738 16.5351 19.8898 16.549 19.8931 16.5521L19.9154 16.5721L19.957 16.6105C19.9784 16.6089 19.9754 16.6092 19.947 16.6112L19.9227 16.6325L20.1611 16.6993L20.3518 16.7528L20.4415 16.8151L20.6753 16.8795C20.6808 16.8809 20.7044 16.8913 20.7074 16.894L20.7284 16.9118C20.7679 16.9453 20.7333 16.9245 20.7823 16.9434L20.8243 16.9598C20.8568 16.9723 20.8984 16.9948 20.9241 17.0122L20.9516 17.0307C20.8775 16.9807 21.1349 17.1285 21.0752 17.1089C21.1268 17.1259 21.2367 17.1528 21.2849 17.1784C21.5318 17.3084 21.4247 17.2182 21.7033 17.3531L21.8793 17.4383L22.185 17.55C22.2386 17.5694 22.2881 17.593 22.3418 17.6247L22.4481 17.6878L22.7987 17.7901C22.8233 17.7973 22.8691 17.8363 22.8948 17.8453L23.1846 17.9478C23.2392 17.9671 23.2835 18.0017 23.3401 18.0187C23.5298 18.0758 23.5618 18.1526 23.6148 18.1712C23.7301 18.2124 23.8679 18.2442 23.9749 18.2938C24.0278 18.3183 24.0733 18.339 24.1312 18.3588C24.1933 18.3801 24.2402 18.4103 24.3007 18.4346L24.4848 18.5089L24.6546 18.5889L24.7868 18.6523L25.0087 18.735L25.2192 18.8301C25.2424 18.8406 25.2741 18.8588 25.2967 18.8712L25.457 18.9595C25.4882 18.9766 25.5527 18.9952 25.5797 19.0123C25.6114 19.0323 25.645 19.0582 25.6723 19.0689C25.7763 19.1094 25.9181 19.1784 25.9631 19.1911L26.3098 19.2896C26.3178 19.2917 26.3291 19.3253 26.3596 19.3365L26.3956 19.3496C26.525 19.3964 26.4366 19.4319 26.5221 19.4033L26.7014 19.4768C26.7611 19.5014 26.8223 19.559 26.8785 19.5946C26.9913 19.6663 27.2178 19.8087 27.2621 19.9277C27.356 20.1795 27.2921 20.3499 27.1035 20.5196L27.0026 20.6105L26.9267 20.6798C26.7693 20.8234 26.661 20.7311 26.591 20.7002C26.4563 20.6407 26.3022 20.6136 26.1516 20.5711C26.094 20.5548 26.0354 20.5111 25.982 20.4902C25.8547 20.44 25.7124 20.4117 25.5801 20.3681C25.545 20.3562 25.4906 20.2798 25.4571 20.2642C25.3552 20.2172 25.2387 20.1858 25.1404 20.1896C25.0593 20.1414 24.9544 20.0949 24.8527 20.1129C24.7375 20.1334 24.8018 20.02 24.5149 20.0194C24.2641 20.0189 24.1891 19.9255 24.1514 19.9131L23.7917 19.7953L23.6723 19.7325C23.6684 19.7304 23.1296 19.678 22.9669 19.5745L22.8947 19.5284C22.8121 19.4759 22.6581 19.4719 22.5695 19.427L22.4014 19.3415C22.2794 19.2795 22.2376 19.2414 22.1386 19.1522L21.4949 18.9774C21.4775 18.9727 21.434 18.9292 21.4145 18.9221C21.2859 18.8741 21.0956 18.8439 20.972 18.7815L20.8346 18.7122L20.7735 18.6802C20.7454 18.6656 20.7195 18.6499 20.6887 18.635L20.5388 18.5626L20.0407 18.4051C19.972 18.3835 19.9215 18.3473 19.8438 18.3263L18.5812 17.9831L18.4874 17.9216L18.2645 17.8507C18.1573 17.8167 18.235 17.6992 18.2146 17.6003L18.1712 17.3885C18.1573 17.3215 18.1435 17.2115 18.0805 17.1737C18.0225 17.1387 17.9268 17.1182 17.8551 17.1163C17.8061 17.1149 17.7218 17.2046 17.7068 17.2572C17.6703 17.3849 17.6322 17.5201 17.6102 17.657C17.6011 17.7127 17.6083 17.7867 17.5924 17.8458L17.4533 18.3633C17.4576 18.3841 17.4637 18.4373 17.4689 18.4569L17.1287 19.7318C17.1482 19.6589 16.8843 20.356 16.9261 20.3078L16.8824 20.3581C16.8422 20.4044 16.8264 20.5539 16.7957 20.6171L16.7275 20.7566L16.6596 20.9L16.5283 21.294L16.4621 21.4349L16.3896 21.5888L16.3135 21.7964L16.2242 21.9689C16.2013 22.013 16.1698 22.064 16.1431 22.1097L16.0667 22.2404L15.9912 22.3747L15.9079 22.5245L15.8179 22.6862C15.7888 22.7385 15.7574 22.7863 15.7706 22.8487C15.8162 23.0651 15.9656 23.0427 16.0421 23.0508C16.2079 23.0683 16.2087 22.9904 16.3117 22.9248L16.5284 22.7868C16.5721 22.7589 16.6142 22.7595 16.6673 22.7736L17.4937 22.9929L18.212 23.1847C18.229 23.1892 18.288 23.1674 18.297 23.1698L18.7638 23.2934C18.8182 23.308 18.8666 23.3265 18.8953 23.3391C18.9062 23.3649 18.9089 23.3718 18.9048 23.362C18.9474 23.3422 18.9584 23.3443 18.9823 23.3509L19.2779 23.4318C19.341 23.4491 19.434 23.4646 19.4884 23.4683C19.5729 23.4771 19.4577 23.4964 19.551 23.4862C19.5588 23.4853 19.5965 23.4733 19.6157 23.4785L20.9024 23.8205L21.0889 23.867L21.3122 23.8484L21.5089 23.8945L21.6417 23.8993L21.9314 23.9641L22.0278 23.9578L22.4552 24.0616L22.6171 24.0663L23.2464 24.2381C23.3468 24.2655 23.4966 24.3672 23.5573 24.4555L23.4622 24.8243C23.3009 24.932 23.3412 24.9719 23.1181 25.0417C22.9849 25.0834 22.8858 25.0793 22.6997 25.1218L22.3359 25.205C22.2441 25.2259 22.1467 25.2511 22.0517 25.2565L21.6418 25.2792L21.2987 25.3177L21.0619 25.3385C21.0171 25.3425 20.9544 25.3313 20.9025 25.3289L20.6958 25.3193C20.5958 25.3145 20.4805 25.3568 20.3756 25.3554L20.2857 25.3544L20.0327 25.3122C19.8136 25.2757 19.8939 25.4063 19.3405 25.2886C19.3013 25.2803 19.2527 25.2783 19.2133 25.2785L19.0277 25.279L18.8184 25.2432C18.7454 25.2307 18.683 25.2371 18.6077 25.2182C18.5448 25.2024 18.4853 25.2025 18.4232 25.1993L18.2192 25.1889L17.842 25.1105C17.8073 25.1034 17.5985 25.143 17.3456 25.096C17.2854 25.0847 17.2312 25.0831 17.1737 25.0743L16.9465 25.0393C17.5015 25.1247 15.7563 24.9068 16.8309 25.0096C16.8148 25.008 16.7443 25.0338 16.7748 25.02C16.7383 25.0365 16.8222 24.9476 16.6278 24.9718C16.5659 24.9796 16.4715 24.9336 16.4077 24.9351L16.2403 24.939C16.1712 24.9406 16.1062 24.9309 16.0322 24.9142L15.8587 24.8754C15.8502 24.8736 15.8211 24.8604 15.8138 24.8572C15.807 24.8543 15.805 24.8689 15.7968 24.8862L15.6161 24.8491L15.5031 24.8567L15.0962 24.7472L14.9795 24.753L14.3934 24.6094L14.3116 24.6219L14.1569 24.5851C14.1396 24.5809 14.0838 24.5981 14.0652 24.5971L13.5177 24.4607L13.3543 24.4522L12.5716 24.2455L12.4333 24.2069C12.3467 24.1828 12.2489 24.1492 12.1656 24.1469C11.9775 24.1416 12.1819 24.1231 11.8119 24.0387C11.7951 24.0348 11.7451 24.0403 11.7314 24.0415C11.7013 24.0249 11.6543 23.9984 11.6083 23.9856L10.2379 23.6105C10.2444 23.6123 10.0005 23.4625 9.96467 23.4541L9.81495 23.4194C9.78007 23.4113 9.72344 23.3649 9.68722 23.3533L9.19202 23.1943C9.1344 23.1759 9.0822 23.1379 9.02274 23.1201C8.95129 23.0986 8.89746 23.0745 8.83766 23.0408C8.80619 23.0231 8.73808 23.0032 8.70856 22.9837L8.57265 22.8943C8.44333 22.8092 8.45791 22.861 8.29823 22.7876L8.22055 22.7518C8.16057 22.7242 8.10399 22.6714 8.0339 22.6479L7.79088 22.567C7.80145 22.5705 7.52436 22.384 7.50658 22.3707C7.38049 22.2766 7.34204 22.2772 7.2077 22.1788L7.03297 22.0507L6.74266 21.8393C6.61609 21.747 6.36644 21.5244 6.27054 21.4083L6.19502 21.3169L6.00831 21.139L5.87604 21.0133C5.84502 20.9838 5.79665 20.93 5.77178 20.8956L5.62786 20.6962L5.55171 20.5907C5.52373 20.5522 5.50414 20.5207 5.48437 20.475C5.36019 20.1903 5.32953 20.2297 5.19735 20.01C5.1639 19.9544 5.12736 19.9057 5.0903 19.8558C4.99854 19.732 4.90349 19.6197 4.73743 19.5757L2.7848 19.058C2.81896 19.0672 2.49145 19.0602 2.37313 19.0285L2.09042 18.9528C2.08632 18.9517 2.05539 18.9562 2.05198 18.9572L2.02701 18.9653C2.0231 18.9666 1.99378 18.9675 1.98928 18.9663L1.41943 18.8181C1.4083 18.8151 1.36864 18.8436 1.36226 18.837L1.32134 18.7952C1.28157 18.7547 1.19343 18.7915 1.14206 18.7786L0.521201 18.6208C0.498499 18.615 0.428211 18.6368 0.405812 18.6305L-0.546042 18.3734C-0.580795 18.364 -0.64996 18.3769 -0.680171 18.371C-0.906737 18.3255 -1.13027 18.2624 -1.35769 18.1997C-1.57788 18.139 -1.46058 18.2128 -1.60209 18.1755L-2.53349 17.9302L-2.56367 17.9428C-2.56724 17.9445 -2.58839 17.9484 -2.59167 17.9482L-2.62865 17.944L-2.6683 17.9343L-2.70751 17.9244L-2.74633 17.9146L-2.78553 17.9048L-2.82513 17.8948L-2.8636 17.8845L-2.90304 17.8739L-2.94208 17.8635L-2.98108 17.8528L-3.01993 17.8424L-3.05928 17.8323L-3.09853 17.8218L-3.1366 17.8116L-3.2364 17.7842L-3.2145 17.8157C-3.21124 17.8215 -3.20953 17.8284 -3.21564 17.8269L-3.26329 17.815L-3.40174 17.7811C-3.41571 17.7778 -3.452 17.7469 -3.46101 17.7392C-3.54028 17.7492 -3.64243 17.7352 -3.71336 17.6805C-3.8516 17.574 -3.93141 17.6228 -3.99114 17.5926L-4.01916 17.5785C-4.05398 17.5608 -4.08901 17.6158 -4.12902 17.573L-4.14874 17.5521C-4.15147 17.549 -4.17302 17.5311 -4.17673 17.5301L-4.30894 17.4917L-4.30405 17.5195L-4.25561 17.5293L-4.21171 17.538C-4.19375 17.5537 -4.17785 17.5678 -4.18546 17.5611L-4.33943 17.532C-4.36095 17.528 -4.42328 17.5498 -4.45131 17.5427L-5.30136 17.3226L-5.38094 17.3064L-5.47498 17.3099L-6.32158 17.0871C-6.34929 17.0921 -6.413 17.1026 -6.43955 17.0954L-7.5559 16.797L-7.61965 16.8224L-7.81306 16.7695C-7.82028 16.7676 -7.86756 16.7699 -7.88062 16.7921L-8.9709 16.5025C-9.03692 16.5263 -9.04813 16.5252 -9.10832 16.5093L-9.14796 16.4987L-9.18642 16.4884L-9.2255 16.4772L-9.264 16.4663L-9.30289 16.4552L-9.34295 16.4438L-9.38161 16.4335L-9.42117 16.4242L-9.4599 16.4149L-9.50214 16.4046C-9.55342 16.3922 -9.59759 16.3711 -9.64398 16.335C-9.62622 16.3265 -9.64398 16.335 -9.6543 16.3399L-9.68877 16.3514L-9.95977 16.2835L-10.0613 16.2916L-11.5884 15.889C-11.7215 15.854 -11.8405 15.8193 -11.9687 15.8096C-12.21 15.7911 -12.3174 15.6952 -12.4637 15.7312L-13.67 15.423L-13.9131 15.3989C-13.9562 15.3946 -13.9962 15.3794 -14.0329 15.3734L-14.3385 15.3238C-14.4342 15.3082 -14.5185 15.2816 -14.6109 15.2523C-14.784 15.1978 -14.9576 15.1562 -15.133 15.1109L-15.2612 15.0781L-15.4475 15.0352C-15.4635 15.0316 -15.5193 15.051 -15.5375 15.05C-15.7474 15.0393 -15.8339 14.9958 -16.079 14.9646C-16.2513 14.9425 -16.4094 14.913 -16.5785 14.8748C-16.7007 14.8469 -16.6413 14.8257 -16.7344 14.8219C-17.151 14.8043 -17.1195 14.7745 -17.4939 14.6887L-17.6706 14.6482L-17.9086 14.5962L-18.1094 14.5578C-18.1622 14.5477 -18.2389 14.549 -18.2905 14.5353L-19.619 14.1866L-19.8957 14.1285L-20.1086 14.0576L-20.6343 13.9086L-20.8223 13.845L-20.9207 13.8145L-21.1326 13.7488L-21.2539 13.7111C-21.3801 13.672 -21.3624 13.6449 -21.4364 13.6541C-21.6001 13.6744 -21.7261 13.5669 -21.8659 13.5264C-22.0399 13.476 -22.0312 13.4693 -22.1979 13.4244C-22.5445 13.3311 -22.3963 13.3403 -22.6756 13.2558L-23.0125 13.154L-23.031 13.1309C-23.0336 13.1274 -23.0522 13.1109 -23.056 13.1096L-23.0936 13.0974L-23.1338 13.0845C-23.1433 13.0815 -23.1602 13.0757 -23.1652 13.0733L-23.1969 13.0584C-23.207 13.0536 -23.2225 13.0453 -23.2276 13.044L-23.2638 13.0336L-23.3042 13.0228L-23.3431 13.0126L-23.3812 13.0024L-23.4199 12.9924L-23.4595 12.9823L-23.499 12.9721L-23.5388 12.9619L-23.5781 12.9518C-23.6339 12.9374 -23.6315 12.9377 -23.6698 12.9041L-23.6923 12.8844C-23.7064 12.8721 -23.7397 12.8627 -23.7612 12.8572L-23.8004 12.8473L-23.8394 12.8375L-23.879 12.8282L-23.9191 12.8187L-24.0178 12.7957C-24.0887 12.7792 -24.0323 12.7435 -24.0839 12.7245L-24.2322 12.6704L-24.4659 12.5905C-24.7208 12.5032 -24.7681 12.4394 -24.8931 12.4044L-25.1744 12.3256C-25.2131 12.3148 -25.2138 12.3054 -25.2759 12.2858L-25.3401 12.2654L-25.5327 12.9843C-25.481 13.0117 -25.4107 13.0562 -25.3483 13.0731L-24.5864 13.28L-24.5005 13.3031C-24.3952 13.3319 -24.465 13.3494 -24.3733 13.3737L-24.3417 13.3822C-24.3068 13.3915 -24.2762 13.3604 -24.2629 13.3731L-24.2431 13.3921C-24.1816 13.4509 -24.1649 13.3962 -24.1317 13.4277L-24.1092 13.4492C-24.0738 13.4828 -24.115 13.4583 -24.0631 13.4801L-24.0428 13.4888C-24.0123 13.5016 -24.0475 13.5018 -23.9723 13.5254L-23.947 13.5335L-23.9193 13.5419L-23.8851 13.5524L-23.8478 13.5632L-23.8068 13.5742L-23.7656 13.5857C-23.7564 13.5882 -23.7382 13.5939 -23.7314 13.5966L-23.7007 13.6091C-23.6921 13.6124 -23.6814 13.6183 -23.6776 13.6191L-23.6577 13.6236L-23.637 13.6253C-23.6297 13.626 -23.6147 13.6257 -23.6111 13.6271L-23.5845 13.6385L-23.5526 13.6545L-23.519 13.6715L-23.4864 13.6879L-23.4561 13.7031L-23.424 13.7191C-23.4194 13.7214 -23.3949 13.7325 -23.3898 13.7335L-23.3476 13.7409L-23.3134 13.746L-23.2848 13.7464L-23.2632 13.7475C-23.2557 13.7478 -23.2441 13.7468 -23.2405 13.7482L-23.2152 13.7582C-23.211 13.7598 -23.1978 13.7691 -23.1887 13.7749L-23.1603 13.793L-23.131 13.8118L-23.1 13.832C-23.0964 13.8343 -23.0794 13.8433 -23.0751 13.8453L-23.0418 13.86L-23.0091 13.8746L-22.9766 13.8893L-22.9456 13.9031L-22.9128 13.9181C-22.9057 13.9213 -22.8862 13.9293 -22.8796 13.9311L-22.8397 13.9414L-22.8 13.952L-22.7595 13.9622L-22.7175 13.9735C-22.7131 13.9744 -22.6956 13.9817 -22.6872 13.9854L-22.661 13.9971C-22.6537 14.0004 -22.6444 14.0054 -22.6416 14.006L-22.6219 14.0089L-22.5975 14.0129C-22.5935 14.0135 -22.5743 14.0178 -22.5707 14.0194L-22.541 14.034C-22.5156 14.0464 -22.5107 14.0552 -22.477 14.0552L-22.4437 14.0554C-22.4333 14.0554 -22.4148 14.0535 -22.4096 14.0553L-22.3771 14.0674L-22.3459 14.0839L-22.3155 14.1L-22.2843 14.1165C-22.2759 14.1209 -22.2614 14.1286 -22.2568 14.1302L-22.2214 14.144L-22.1853 14.1586L-22.1494 14.1736C-22.1453 14.1753 -22.1277 14.1871 -22.1243 14.1899L-22.1 14.2101L-22.0752 14.2302C-22.0718 14.2331 -22.0464 14.242 -22.0418 14.2422L-22.0066 14.2435L-21.9732 14.2447L-21.9394 14.2459L-21.9056 14.247L-21.8692 14.2484C-21.864 14.2487 -21.8413 14.2497 -21.8332 14.2523L-21.7963 14.2639L-21.7654 14.279L-21.7352 14.2937L-21.7028 14.3093L-21.6698 14.3254L-21.6393 14.3404C-21.612 14.3539 -21.6028 14.3579 -21.5736 14.3661L-21.5334 14.3775L-21.4937 14.3882L-21.4547 14.3986L-21.4156 14.4091L-21.3766 14.4196L-21.3373 14.4301L-21.2977 14.44C-21.2613 14.4494 -21.2555 14.4496 -21.2264 14.4636L-21.1941 14.4789L-21.162 14.4942L-21.1312 14.509C-21.1242 14.5124 -21.114 14.5164 -21.1064 14.5193L-21.0833 14.5283L-21.0588 14.5378L-21.0295 14.5495L-20.9931 14.5644C-20.9875 14.5668 -20.9691 14.5724 -20.9601 14.5748L-20.9187 14.5859L-20.8786 14.5964L-20.8359 14.6078C-20.831 14.6089 -20.8101 14.6164 -20.804 14.6194L-20.7715 14.6339C-20.7622 14.6381 -20.7479 14.6459 -20.7435 14.6467L-20.7141 14.6516L-20.6801 14.6575C-20.6757 14.6582 -20.6606 14.6627 -20.6502 14.6655L-20.6209 14.6738L-20.5946 14.6813L-20.5672 14.6892L-20.5378 14.698L-20.5072 14.7072L-20.4792 14.7154L-20.4528 14.7229L-20.4263 14.7326L-20.3913 14.7456C-20.3869 14.7472 -20.3634 14.7541 -20.3586 14.7548L-20.3258 14.7582C-20.2845 14.7626 -20.33 14.7496 -20.2741 14.7706L-20.2391 14.7838C-20.2294 14.7874 -20.2135 14.7928 -20.2039 14.7953L-20.1629 14.8063L-20.1242 14.8171C-19.8985 14.8793 -20.0145 14.8942 -19.7015 14.9569C-19.4683 15.0036 -19.4907 15.0279 -19.2064 15.0665L-19.1668 15.0717L-18.6389 15.1469C-18.6331 15.1478 -18.6114 15.1534 -18.5984 15.1567L-18.5076 15.1791L-18.3602 15.221C-18.2643 15.2482 -18.1754 15.2765 -18.0708 15.2844C-17.9814 15.2912 -17.898 15.3089 -17.8097 15.3238L-17.5533 15.367C-17.2762 15.4137 -17.5439 15.3939 -17.2175 15.4425L-17.0151 15.4725L-16.8332 15.4997C-16.745 15.5128 -16.6609 15.5431 -16.5766 15.5646L-16.1248 15.6792C-16.0401 15.7006 -15.9371 15.7449 -15.8567 15.74L-15.7614 15.7341L-15.406 15.8028C-15.3539 15.8129 -15.3834 15.8403 -15.3197 15.8428L-15.2814 15.8443C-15.243 15.8458 -15.2063 15.8439 -15.1535 15.8726L-15.1206 15.8904L-15.0916 15.9054C-15.0861 15.9082 -15.0693 15.9251 -15.0591 15.934C-14.8241 15.852 -14.5789 16.0965 -14.3565 16.0977L-14.1468 16.0989L-13.8708 16.0927C-13.7594 16.0903 -13.6798 16.1456 -13.6173 16.1837C-13.6054 16.191 -13.5668 16.2015 -13.5528 16.207C-13.4452 16.2501 -13.3403 16.253 -13.2245 16.2697C-12.9786 16.3057 -12.7693 16.403 -12.5349 16.425C-12.5005 16.4282 -12.4495 16.4263 -12.4192 16.4342L-11.872 16.574C-11.8338 16.5838 -11.7779 16.5812 -11.7354 16.5853C-11.6256 16.5962 -11.5165 16.6361 -11.4099 16.6638L-11.1719 16.7258C-11.0361 16.7612 -11.0343 16.6663 -11.0413 16.7241L-11.0447 16.7525L-11.0199 16.7561C-11.0076 16.7579 -10.9689 16.7289 -10.9691 16.7383C-10.9691 16.7383 -10.9591 16.7508 -10.9536 16.7576L-10.9343 16.7816C-10.9156 16.805 -10.8707 16.7747 -10.8511 16.7759C-10.8435 16.7764 -10.8189 16.8065 -10.816 16.8056L-10.7894 16.798L-10.5539 16.8335C-10.5517 16.8339 -10.5315 16.831 -10.5276 16.8307L-10.5026 16.8293C-10.4577 16.8268 -10.3952 16.8324 -10.3645 16.8652L-10.3456 16.8855C-10.3591 16.8709 -10.209 16.8911 -10.1366 16.9105L-10.0965 16.9212L-10.0579 16.9326L-10.0192 16.9443L-9.97508 16.9576L-9.91939 16.9746C-9.91202 16.9768 -9.89904 16.9737 -9.88402 16.9715C-9.87575 16.9703 -9.90696 16.9564 -9.91407 16.954L-9.95646 16.9412L-10.0072 16.9259C-10.0086 16.9227 -10.0052 16.91 -9.99917 16.9116L-9.94196 16.9269L-8.79568 17.2285C-8.78689 17.2308 -8.75684 17.2241 -8.75338 17.2229C-8.68419 17.1998 -8.15461 17.3601 -8.06561 17.3989C-7.95297 17.4479 -7.87477 17.5137 -7.75115 17.4663L-7.73188 17.4834L-7.71222 17.4959L-7.68958 17.5114L-7.66208 17.5314C-7.65894 17.5337 -7.63773 17.5334 -7.62967 17.533L-7.5034 17.5288C-7.49814 17.5287 -7.46034 17.5555 -7.45396 17.5559L-7.27155 17.5663C-6.94257 17.585 -6.9204 17.7474 -6.67888 17.7403C-6.54555 17.7363 -6.67244 17.7373 -6.57068 17.7605L-6.4208 17.7947L-6.31809 17.8152C-6.18894 17.8408 -6.05573 17.8942 -5.93074 17.901C-5.84595 17.9056 -5.75635 17.8765 -5.69694 17.9664C-5.66553 17.9577 -5.57606 17.9253 -5.53115 17.9373L-4.71113 18.1547C-4.69649 18.1586 -4.66476 18.1581 -4.65747 18.1481L-4.64219 18.127L-4.63028 18.1528C-4.58158 18.2585 -4.4463 18.1472 -4.36433 18.2271C-4.34938 18.2416 -4.29958 18.2275 -4.27898 18.2326L-3.83952 18.3427L-3.63036 18.4009L-3.58498 18.4135C-3.58132 18.4099 -3.56458 18.3943 -3.57184 18.4012L-3.59663 18.3804L-3.5363 18.3966C-3.53175 18.3976 -3.51608 18.3992 -3.50756 18.4002L-3.47985 18.4038C-3.47133 18.4048 -3.45225 18.4078 -3.44449 18.41L-3.18862 18.4805C-3.16402 18.4871 -3.15209 18.4965 -3.13005 18.5009L-3.10424 18.5061L-3.07344 18.5122L-3.03453 18.5201C-3.02403 18.5223 -3.00913 18.5261 -2.99708 18.5295L-2.95663 18.541L-2.91769 18.5518L-2.87864 18.5623L-2.83951 18.5732L-2.80074 18.5832L-2.76114 18.5931L-2.72199 18.6032L-2.68342 18.6131L-2.64504 18.623L-2.60569 18.6331L-2.56548 18.6439L-2.52573 18.6541L-2.48688 18.6645L-2.44797 18.6747L-2.40893 18.6852L-2.36988 18.6956L-2.33102 18.706L-2.29169 18.717L-2.24689 18.7294L-2.2227 18.7165L-2.27369 18.7022L-2.27918 18.6789L-1.57705 18.863C-1.56982 18.8649 -1.5462 18.8712 -1.54307 18.8697L-1.52794 18.8624C-1.52794 18.8624 -1.50678 18.8444 -1.47958 18.8514L-0.967769 18.9867L-0.923252 18.9986L-0.882253 19.0096C-0.776344 19.0384 -0.838212 18.9803 -0.679818 19.0226L0.596372 19.3626C0.615192 19.3619 0.606571 19.3518 0.580229 19.3283L0.595163 19.3257L0.727194 19.3656C0.775381 19.3802 0.825387 19.3904 0.876186 19.4023L1.17151 19.4716C1.24141 19.488 1.42528 19.4647 1.57367 19.5537C1.62829 19.5865 1.64681 19.5861 1.71066 19.5891C1.80129 19.5937 1.92428 19.6634 2.01927 19.6573L2.14346 19.6491L2.98763 19.8731C3.01111 19.873 3.03413 19.873 3.01572 19.8729L2.99259 19.8374L3.17105 19.8844L3.20932 19.8947L3.24848 19.9047L3.28752 19.9152L3.32674 19.9251L3.36578 19.9355L3.40494 19.9456L3.44379 19.956L3.48284 19.9665L4.06846 20.1238L4.1077 20.1343L4.1468 20.1446L4.18585 20.155L4.22506 20.1649L4.26411 20.1754L4.30708 20.186C4.35917 20.1993 4.42044 20.2354 4.45954 20.248C4.4572 20.2474 4.56757 20.2315 4.6613 20.3573L4.76804 20.5009L5.05014 20.9663L5.1982 21.1674L5.30256 21.3074C5.33581 21.352 5.37563 21.4009 5.41417 21.4414L5.58637 21.6227L5.75055 21.7956C5.77815 21.8246 5.81693 21.879 5.84501 21.9038L5.99142 22.0337L6.11511 22.143L6.23106 22.2359L6.5018 22.4711L6.66171 22.599C7.01443 22.8813 6.95225 22.7026 7.08059 22.871C7.0973 22.893 7.15492 22.9161 7.18338 22.9325L7.32841 23.0161L7.47605 23.0984L7.67418 23.2188L7.84261 23.3048L7.98934 23.3843L8.20943 23.4884L8.39531 23.56L8.58233 23.654C8.75861 23.7427 8.70088 23.702 8.86582 23.7862L9.06751 23.8894L9.37216 23.9903L9.50635 24.0549L9.67328 24.1308C9.84917 24.2109 10.129 24.2559 10.2796 24.3219C10.3388 24.3478 10.3923 24.3784 10.456 24.3985C10.5264 24.4208 10.581 24.4506 10.6444 24.4823L10.7659 24.5429C10.7989 24.5594 11.1249 24.5743 11.1824 24.6754C11.183 24.6764 11.2091 24.6625 11.2164 24.6595C11.2923 24.629 11.2909 24.728 11.3886 24.7407L11.5166 24.7573L11.3277 24.6906L11.3424 24.6743L11.3836 24.6866L11.4224 24.6983L11.4604 24.7095L11.4984 24.7206L11.5376 24.7319L11.5768 24.7428L11.7152 24.7799L11.7539 24.7903L11.7929 24.8007L11.832 24.8112L11.8707 24.8212L11.9095 24.8311L11.9501 24.8414C12.0509 24.8671 12.0592 24.9394 12.2577 24.9676C12.3109 24.9753 12.2534 24.9246 12.417 24.9677L13.0334 25.131C13.061 25.0899 13.2081 25.1357 13.2471 25.1459L13.4677 25.2042L13.9006 25.3191C13.9092 25.3099 13.9204 25.2975 13.9219 25.2976L14.1586 25.3386C14.1275 25.3027 14.125 25.2961 14.1527 25.3185L14.2076 25.3167L14.2408 25.3162C14.3162 25.3152 14.2279 25.3012 14.2836 25.3212L14.3624 25.3496C14.366 25.351 14.3975 25.3304 14.4018 25.3294L15.227 25.549C15.3448 25.5804 15.2694 25.5082 15.4969 25.579L15.5381 25.5917C15.8123 25.6772 15.5613 25.5618 15.9223 25.6532C15.9159 25.6515 16.2129 25.6575 16.1996 25.6546L16.8558 25.8033L17.0437 25.8222C17.1025 25.8281 17.1525 25.83 17.209 25.8361L17.368 25.8533L17.5575 25.8677C17.5783 25.8692 17.6098 25.868 17.6301 25.8686L17.7584 25.8717C17.8143 25.873 17.8684 25.8758 17.9259 25.8894C17.9941 25.9056 18.0484 25.8998 18.1153 25.9096L18.3207 25.9394C18.3662 25.9461 18.4074 25.9424 18.4528 25.9481C18.7157 25.9813 18.5551 25.9317 18.8065 26.0025C18.8705 26.0205 18.8024 25.9864 19.0056 25.9974L19.0662 26.0009L19.2659 26.0099C19.4708 26.0193 19.3663 26.0475 19.515 26.0337C19.5447 26.0309 19.5963 26.0398 19.6418 26.0488C19.7038 26.0612 19.7635 26.0616 19.8273 26.068C20.0336 26.0892 20.1802 26.1775 20.3161 26.1617L20.55 26.1346C20.59 26.1299 20.6358 26.1253 20.6746 26.1231L20.8203 26.1147C20.9673 26.1062 20.9953 26.0144 21.129 26.1245C21.2079 26.1894 21.2044 26.0788 21.3449 26.0739L21.512 26.0682L21.6638 26.0668C21.6607 26.0668 21.9761 26.0258 21.916 26.0482L21.9492 26.0359L22.0371 26.0358C22.0507 26.0358 22.0732 26.0236 22.0959 26.0271L22.1361 26.0332C22.1641 26.0375 22.182 26.0455 22.2073 26.0388L22.236 26.0313L22.2644 26.024L22.2936 26.0164C22.3247 26.0083 22.3192 26.0106 22.3517 26.0067L22.3835 26.0028L22.4143 25.9987C22.4223 25.9976 22.4383 25.9951 22.4437 25.9952L22.4795 25.9952L22.5152 25.9954C22.5204 25.9955 22.5404 25.9944 22.544 25.9933L22.5732 25.9827L22.6014 25.9727L22.6298 25.9628L22.6606 25.958C22.6976 25.9521 22.6641 25.9662 22.6949 25.9456C22.7303 25.922 22.8866 25.9471 23.0521 25.8386L23.079 25.821C23.0825 25.8188 23.1264 25.7987 23.131 25.7986L23.1633 25.7983C23.1726 25.7982 23.1981 25.7976 23.2063 25.7966L23.4855 25.7683C23.5945 25.7573 23.8207 25.577 23.9131 25.4867L23.9585 25.4422C24.0768 25.3264 24.0288 25.2988 24.1498 25.171C24.3685 25.1086 24.2915 25.0305 24.4482 25.0626L24.5104 25.0545L24.6456 25.0507C24.7352 25.0482 24.8118 25.0271 24.9004 24.9939C25.0081 24.9535 25.0473 24.9886 25.068 24.9377C25.0778 24.916 25.0893 24.8902 25.0809 24.9093L25.0993 24.9358L25.1216 24.9183C25.1361 24.9068 25.154 24.891 25.1736 24.8882L25.2065 24.8833L25.2351 24.8796C25.2379 24.8793 25.2609 24.8816 25.2636 24.8809L25.4469 24.8278C25.4505 24.8268 25.4709 24.8139 25.4767 24.8103L25.4998 24.7966C25.526 24.7812 25.5202 24.7818 25.5507 24.7748L25.5817 24.7677L25.6122 24.7607L25.6425 24.754L25.6725 24.7475L25.7015 24.7414C25.7095 24.7397 25.727 24.7346 25.7321 24.7351L25.7675 24.7381L25.8019 24.7409C25.8056 24.7413 25.8268 24.7363 25.8298 24.735L25.8555 24.7235L25.8836 24.7117C25.8876 24.71 25.9053 24.7094 25.9148 24.7083L25.9501 24.7048C26.0168 24.698 26.0945 24.6703 26.1577 24.6398L26.1852 24.6264L26.2083 24.6149C26.266 24.5865 26.2327 24.4638 26.4758 24.3594C26.4957 24.3508 26.5373 24.2994 26.5553 24.2854C26.6258 24.2307 26.713 24.1811 26.7309 24.1526L26.7973 24.0466C26.8036 24.0365 26.8125 24.0222 26.8179 24.0153L26.8569 23.9649L26.8735 23.9443L26.9933 23.7949C27.0505 23.7236 26.9829 23.6219 27.2068 23.4197C27.241 23.3889 27.2444 23.4401 27.4115 23.3008C27.4476 23.2707 27.5222 23.2351 27.5524 23.2047L27.7214 23.0321C27.779 22.9735 27.8424 22.9172 27.8839 22.8475C27.9993 22.6533 28.0561 22.6415 28.0986 22.3361C28.1261 22.1371 28.089 22.1 28.0833 22.0089C28.0762 21.8978 28.0934 21.7642 28.0434 21.6625C27.9979 21.57 27.95 21.4847 27.8919 21.3979C27.8382 21.3179 27.6073 21.1963 27.6792 21.1093L27.7901 20.975C27.8173 20.9421 27.8452 20.8889 27.8641 20.8525L27.9534 20.6801L28.0102 20.5728C28.0152 20.5637 28.0217 20.5411 28.0239 20.5318C28.0643 20.4766 28.077 20.4 28.0757 20.3255L28.0726 20.1519C28.0714 20.0859 28.0525 19.9152 28.0295 19.8714L27.9282 19.6777C27.8826 19.5904 27.9602 19.6347 27.8752 19.5155C27.846 19.4746 27.8173 19.4301 27.7901 19.398L27.7023 19.2941C27.6117 19.1869 27.4746 19.0791 27.3536 18.9943C27.2814 18.9437 27.2066 18.8519 27.1253 18.8226L26.9604 18.763C26.9175 18.7475 26.879 18.7288 26.8309 18.7078C26.7554 18.6747 26.6279 18.6429 26.5532 18.6178C26.535 18.6116 26.4941 18.5667 26.476 18.561L26.2851 18.5008C26.246 18.4884 26.1887 18.4038 26.1502 18.3875C26.0289 18.3529 25.9036 18.3199 25.7837 18.2782C25.742 18.2636 25.6823 18.2155 25.6358 18.2024C25.4764 18.1576 25.3173 18.1306 25.1717 18.0672C25.1065 18.0388 25.0534 18.0102 24.9768 17.9822C24.9365 17.9674 24.8783 17.8921 24.8374 17.8745L24.5418 17.7479L24.2186 17.642L24.0656 17.5702C23.9309 17.507 23.8572 17.4569 23.7734 17.4184L23.5472 17.315L23.3419 17.2162L23.2166 17.1533C23.1996 17.1349 23.1905 17.1249 23.1927 17.1272C23.1259 17.1936 22.9158 17.0718 22.8533 17.0457L22.5489 16.9175L22.3215 16.8117C22.2476 16.7774 22.1329 16.7543 22.0518 16.7302C22.029 16.7235 21.9826 16.6787 21.9597 16.6703C21.8552 16.6316 21.7064 16.6013 21.6067 16.5541L21.4674 16.4881C21.4328 16.4718 21.3963 16.4528 21.3807 16.4249C21.3306 16.3356 21.244 16.2792 21.1456 16.2661C21.0472 16.253 20.9771 16.2039 20.8829 16.1718L20.5823 16.0692C20.6427 16.0899 20.2859 15.9242 20.3102 15.9352L20.1592 15.8662C20.1493 15.8617 19.7894 15.706 19.8097 15.713L19.5332 15.6166L19.3827 15.5331C19.3282 15.5029 19.2782 15.4765 19.2141 15.4563C19.15 15.4361 19.1052 15.4006 19.0444 15.3792L18.7814 15.2869C18.7144 15.2634 18.6626 15.2241 18.5919 15.2043C18.5213 15.1845 18.4609 15.1576 18.4015 15.1229L18.2555 15.0376L18.1226 14.9622C18.0368 14.9136 17.8834 14.8911 17.7915 14.8568C17.7725 14.8498 17.7279 14.8043 17.7085 14.7989L17.1894 14.6534C17.0506 14.5409 16.9071 14.5649 16.7392 14.4833L16.5641 14.3981C16.4343 14.3349 16.4169 14.2719 16.3222 14.2707C16.2836 14.2702 16.0337 14.1423 16.0785 14.1577L15.7857 14.0564C15.7103 14.0304 15.6541 13.9878 15.5735 13.9683C15.5014 13.9507 15.4516 13.9117 15.383 13.8852L15.1844 13.8085L15.0893 13.752C15.083 13.7481 15.0652 13.787 15.0579 13.7855C15.0095 13.7742 14.7949 13.6425 14.7856 13.6396L14.2996 13.491L13.9784 13.2893L13.7311 13.2063L13.5594 13.1208C13.5347 13.1084 13.5001 13.0839 13.472 13.0637C13.3743 13.1056 13.3109 13.0495 13.2231 13.0076C13.0803 12.9393 12.8231 12.9207 12.8165 12.8616C12.8138 12.8374 12.8018 12.7743 12.8071 12.7492C12.8483 12.5541 12.8927 12.3813 12.9996 12.2128L13.1482 11.9783L13.2185 11.8674C13.3141 11.7168 13.392 11.5433 13.5678 11.376L13.6845 11.2648C13.7955 11.159 13.8414 11.005 13.9311 10.905C14.0596 10.762 14.0518 10.7616 14.1443 10.5905C14.1596 10.5621 14.3081 10.3806 14.3209 10.339L14.4436 9.94526C14.4615 9.88784 14.5121 9.84346 14.4988 9.78387C14.4828 9.71224 14.5208 9.62664 14.5616 9.57109C14.5616 9.54712 14.5591 9.48981 14.565 9.46552L14.6573 9.08358C14.6707 9.02796 14.6671 8.93781 14.6661 8.88067L14.6632 8.74541L14.6597 8.57577L14.6554 8.44785L14.6495 8.31756C14.6479 8.27842 14.6459 8.22722 14.6409 8.18889C14.5952 7.84076 14.6138 7.81366 14.4649 7.50734L14.3607 7.2932L14.2731 7.05379C14.2501 6.99119 14.3208 7.02358 14.2802 6.99539C14.239 6.93197 14.1741 6.82671 14.1456 6.76349C14.0506 6.55286 14.0425 6.6187 13.9372 6.44272C13.8866 6.35818 13.9473 6.37039 13.9101 6.34054C13.8801 6.31668 13.8113 6.26724 13.7877 6.23675L13.7206 6.15037C13.6861 6.10584 13.6522 6.05591 13.6159 6.01496L13.3771 5.74637C13.3615 5.72893 13.3389 5.68269 13.3202 5.67126C13.2848 5.64958 13.2388 5.62208 13.2101 5.59943L13.0938 5.50712C13.0657 5.48483 13.0307 5.41558 13.0077 5.38204C12.7379 5.24841 12.8709 5.16537 12.6769 5.05308C12.6598 5.04318 12.6178 5.00967 12.5975 5.00403L12.2599 4.90757L11.6429 4.75231C11.6116 4.74434 11.531 4.75695 11.4974 4.76271L11.2629 4.80334C11.2051 4.81332 11.1138 4.80765 11.0653 4.83635L10.6019 5.11073C10.5676 5.13104 10.4599 5.29717 10.4396 5.34006L10.389 5.44752C10.3812 5.46404 10.3704 5.48873 10.369 5.50352L10.3562 5.64505C10.3524 5.68658 10.3456 5.88381 10.353 5.89821C10.4029 5.99389 10.4702 6.1186 10.5306 6.20556C10.5683 6.25993 10.6149 6.3062 10.645 6.35958C10.6824 6.42626 10.7233 6.49668 10.7495 6.56397L10.8197 6.74399L10.8769 6.91006C10.9788 7.20592 11.1001 7.90038 11.0813 8.20793L11.0693 8.4042C11.0642 8.49069 11.0206 8.61115 11.0022 8.69858C10.9972 8.72184 11.0127 8.92803 10.9223 9.09882C10.798 9.33405 10.9014 9.18473 10.7882 9.37996C10.7691 9.4131 10.7482 9.48705 10.7287 9.51709L10.6497 9.63833C10.6359 9.65943 10.5883 9.6982 10.5822 9.72159L10.5733 9.7549L10.5354 9.79714C10.5246 9.82012 10.5107 9.85573 10.5194 9.7999C10.5095 9.80239 10.504 9.80562 10.5014 9.81325C10.4429 9.97845 10.2033 10.2555 10.0677 10.3819C9.95123 10.4903 9.69702 10.5776 9.59366 10.7041L9.45168 10.7755C9.42602 10.7885 9.38662 10.8051 9.35705 10.8171L9.21884 10.8737C9.15721 10.8991 9.06953 10.9327 9.01739 10.982L8.93027 11.0643L8.62645 11.2493L8.55637 11.3194C8.49629 11.3797 8.0767 11.5805 8.02015 11.6275L7.86199 11.7585L7.70866 11.8646L7.55938 11.9851C7.47582 12.0525 7.40744 12.1554 7.33368 12.2347C7.24987 12.3249 7.18164 12.4163 7.10585 12.5102L6.99584 12.6466L6.87863 12.7982C6.87502 12.8422 6.86922 12.838 6.85863 12.7901L6.82024 12.8756L6.79875 12.8995L6.78455 12.9267C6.6813 13.1246 6.73283 13.0089 6.61885 13.1922L6.50365 13.3777L6.32952 13.6581C6.31074 13.6884 6.28992 13.763 6.27277 13.7973L6.18488 13.973L6.09843 14.148L6.0064 14.3267C5.99978 14.3397 5.96649 14.3757 5.96188 14.3913L5.8881 14.6472C5.87355 14.6976 5.78279 14.8043 5.72905 14.7901L4.84474 14.5581C4.81604 14.5504 4.76236 14.5063 4.73374 14.4952C4.6444 14.4608 4.54882 14.4356 4.44562 14.4084C4.40697 14.398 4.35014 14.3516 4.31429 14.3409L3.66833 14.1456C3.63077 14.1343 3.57393 14.0887 3.53543 14.0777L3.14927 13.9687C3.14927 13.9687 3.16016 13.9624 3.18965 13.9453L2.31135 13.708C2.27445 13.6981 2.21857 13.649 2.1865 13.6382C2.04984 13.5922 1.90642 13.5792 1.7762 13.5193L1.62532 13.4498L0.801862 13.2148C0.731895 13.1948 0.67528 13.157 0.604411 13.1333L0.298558 13.0314C0.250355 13.0153 0.202636 12.9724 0.149886 12.9576L-0.154667 12.8728L-0.238763 12.8118L-0.600081 12.7139C-0.643815 12.7022 -0.694106 12.6579 -0.731414 12.6464L-1.23125 12.4907C-1.30098 12.469 -1.36569 12.4239 -1.43745 12.4051C-1.8342 12.302 -1.72805 12.2861 -1.85721 12.2496L-2.14437 12.1686C-2.16325 12.1633 -2.20579 12.1214 -2.22323 12.113L-2.37599 12.0396C-2.48628 11.9865 -2.61111 11.9636 -2.73622 11.926C-2.77534 11.9142 -2.82436 11.8793 -2.8631 11.8614C-2.92532 11.8328 -3.0085 11.8152 -3.06139 11.7846C-3.09218 11.7667 -3.39837 11.631 -3.33421 11.6492L-4.02642 11.4516C-4.04741 11.4417 -4.09669 11.396 -4.12143 11.3891L-4.68138 11.232L-4.84824 11.1527C-4.96428 11.0976 -5.09799 11.0875 -5.2108 11.0376C-5.28058 11.0067 -5.33611 10.982 -5.40902 10.9597L-5.57532 10.9087C-5.59273 10.9034 -5.63545 10.8629 -5.65138 10.8505L-6.22729 10.6874C-6.07911 10.7294 -6.63121 10.5032 -6.48359 10.5443L-7.27877 10.3225L-7.37882 10.2617L-7.74335 10.1578C-7.77853 10.1477 -7.82458 10.1095 -7.85694 10.0983L-8.17624 9.98727C-8.24323 9.96397 -8.29602 9.92823 -8.3655 9.90641C-8.42938 9.8863 -8.47981 9.85739 -8.53899 9.82913C-8.64156 9.78006 -8.76632 9.76224 -8.88152 9.72517C-8.94046 9.70617 -8.99329 9.67448 -9.05389 9.64841C-9.12198 9.61904 -9.24704 9.58361 -9.31358 9.56172C-9.38012 9.53983 -9.24007 9.55212 -9.56322 9.45784C-9.6205 9.44121 -9.66416 9.40578 -9.71914 9.38527L-9.95638 9.29604C-9.90696 9.31463 -10.3572 9.1228 -10.2979 9.14316L-10.5782 9.04712C-10.6604 9.0189 -10.7226 8.97399 -10.8091 8.95252C-10.8875 8.93324 -10.9458 8.89303 -11.0191 8.86696L-11.2975 8.76735L-11.4711 8.68897L-11.6073 8.62534C-11.6991 8.58234 -11.8068 8.55842 -11.9103 8.52534C-12.1387 8.45238 -12.0639 8.42558 -12.4388 8.31273L-12.73 8.22508C-12.7933 8.20597 -12.8287 8.17469 -12.884 8.12952C-12.9393 8.08435 -13.0617 8.07356 -13.1358 8.04217L-13.3441 7.95429C-13.4099 7.9266 -13.462 7.90558 -13.5207 7.86997C-13.6913 7.76631 -13.8044 7.78325 -14.0199 7.68853C-14.0792 7.66237 -14.1347 7.6396 -14.1974 7.61766L-14.4454 7.53111L-14.6203 7.46607L-14.9444 7.34011C-15.0314 7.30632 -15.1202 7.27782 -15.2111 7.24768C-15.3072 7.21594 -15.4056 7.15646 -15.5007 7.13138C-15.6464 7.093 -15.7839 7.05807 -15.9133 6.98662C-15.9877 6.94552 -16.0736 6.89044 -16.1504 6.86943L-16.3398 6.81783L-16.6734 6.70556L-16.8136 6.66735L-17.1348 6.56438C-17.1836 6.54875 -17.3078 6.48426 -17.4142 6.44184L-17.7594 6.30382L-18.1252 6.19488C-18.2368 6.16156 -18.3357 6.08911 -18.4451 6.05401L-18.7924 5.94278L-19.1537 5.83014L-19.3573 5.75036C-19.5748 5.66537 -19.7225 5.66214 -19.891 5.60288L-20.1233 5.52096L-20.6232 5.37268C-20.719 5.34424 -20.8038 5.31959 -20.9018 5.29803C-21.1788 5.2375 -21.4481 5.16406 -21.7185 5.07899C-21.8063 5.0514 -21.8842 5.01812 -21.9756 5.00945L-22.2206 4.98656L-22.7879 4.8506L-22.8884 4.83116C-23.0415 4.80145 -23.1847 4.77356 -23.3302 4.76215L-23.3305 4.7625ZM26.5492 22.7445C26.4902 22.7601 26.4397 22.7214 26.3904 22.6975L26.255 22.6319C26.2097 22.6099 26.1687 22.5769 26.1195 22.5652C26.0731 22.5543 26.0091 22.5596 25.9791 22.5481L25.8394 22.4953L25.7115 22.4268C25.5395 22.3348 25.3269 22.3543 25.152 22.2619L25.0066 22.1851C24.8224 22.0879 24.5877 22.0257 24.3852 22.0248L24.2363 22.0243L24.1135 22.0016L24.0258 21.9985L23.6296 21.9058C23.6208 21.9201 23.6136 21.9318 23.6136 21.9318C23.6136 21.9318 23.5889 21.9164 23.5843 21.9124L23.5543 21.8856C23.5477 21.8797 23.5204 21.9073 23.5142 21.9009L23.4775 21.8637C23.4705 21.8567 23.434 21.8916 23.4112 21.8855L21.7036 21.4288L21.0636 21.2578C21.0275 21.2504 21.0199 21.2514 21.0626 21.2859C21.0667 21.2917 20.0299 20.9555 20.1085 21.0035L19.997 20.9354C19.9416 20.9015 19.4877 20.8047 19.3996 20.776C19.2173 20.7167 19.0383 20.6719 18.8535 20.6226L18.6971 20.5807L18.1556 20.433C18.136 20.4374 18.0782 20.4484 18.0584 20.4504L17.7144 20.3631C17.7286 20.3866 17.7383 20.4027 17.737 20.4004L17.5441 20.3528C17.5677 20.252 17.6139 20.1914 17.6447 20.1005L17.7399 19.8203C17.76 19.7609 17.7965 19.7176 17.8145 19.6583C17.8687 19.4804 17.9505 19.3873 17.9453 19.295L17.9397 19.1947L17.9886 19.1341L17.98 19.0537C17.9785 19.039 18.0243 19.016 18.0297 18.9997C18.0528 18.9289 18.0875 18.8012 18.1008 18.7173C18.1087 18.6672 18.0994 18.5826 18.1291 18.5566L18.2297 18.4687C18.263 18.4396 18.355 18.4369 18.4066 18.4342C18.6383 18.4223 18.6662 18.5055 18.7089 18.5212L18.9074 18.5939C18.9738 18.6181 19.0113 18.6653 19.075 18.6315C19.1409 18.7229 19.2182 18.6853 19.3493 18.755C19.4257 18.7956 19.4802 18.8233 19.5631 18.8435C19.6238 18.8583 19.6756 18.901 19.7319 18.9189L20.1471 19.0507C20.1972 19.0667 20.2663 19.1314 20.3116 19.1215C20.389 19.1046 20.4244 19.1286 20.4841 19.1478C20.5196 19.1593 20.5591 19.1797 20.6074 19.1946L21.2045 19.3785C21.231 19.3867 21.2803 19.433 21.3077 19.4404L21.5821 19.5135C21.6204 19.5237 21.6747 19.5678 21.7102 19.5798L22.0075 19.6807C22.037 19.6907 22.0902 19.7351 22.1205 19.7432C22.2515 19.779 22.3719 19.8059 22.4921 19.8533C22.5537 19.8775 22.6087 19.9237 22.6815 19.9361C22.7281 19.9441 22.785 20.0006 22.8268 20.0123L23.4457 20.1867C23.4619 20.1965 23.5054 20.2317 23.5206 20.2448L24.494 20.5122L24.6362 20.5905C24.6838 20.6167 24.7318 20.632 24.7756 20.6546L24.9601 20.7491C25.0654 20.803 25.2436 20.8315 25.3517 20.8692C25.3716 20.8763 25.4151 20.9207 25.4332 20.9259L25.8513 21.0452C25.9702 21.1592 26.147 21.135 26.3267 21.2259C26.4185 21.2723 26.4879 21.2678 26.5805 21.3018L26.791 21.3791C26.8289 21.3931 26.8883 21.408 26.912 21.4272L27.0851 21.567C27.1836 21.6466 27.2925 21.7575 27.3307 21.8778L27.3769 22.0236C27.3949 22.0804 27.3501 22.2078 27.3194 22.259L27.2489 22.3761C27.2323 22.4039 27.1932 22.473 27.1657 22.4938C27.0537 22.5784 26.936 22.6433 26.8009 22.679L26.5494 22.7452L26.5492 22.7445ZM16.9127 22.2396C16.8572 22.2251 16.8016 22.1989 16.7665 22.1747C16.8532 22.1332 16.8743 22.0974 16.8905 22.0171C16.9051 21.9457 16.9518 21.8917 16.9744 21.8242L17.0652 21.5533C17.0506 21.5968 17.1971 21.2722 17.2041 21.2601C17.2347 21.2066 17.2646 21.1528 17.2977 21.1012L17.4613 20.8467C17.6373 20.8813 17.8093 20.9594 17.9864 20.9722C18.1196 20.9819 18.2091 21.0112 18.3304 21.0597C18.5922 21.1645 18.8756 21.2203 19.1539 21.2962L19.5634 21.4078C19.5904 21.4151 19.661 21.4045 19.6797 21.4065C19.8006 21.5323 19.836 21.377 19.9405 21.5048C19.9461 21.4993 19.9561 21.463 19.9637 21.4706L20.001 21.5078C20.0142 21.5209 20.0655 21.5045 20.086 21.51L20.6642 21.6628L20.7576 21.7276C20.8029 21.759 21.404 21.8792 21.4824 21.9113C21.8243 22.0519 22.0081 22.0191 22.0547 22.0324L22.6275 22.1955C22.6603 22.2049 22.7111 22.2583 22.7437 22.2617C23.1089 22.2975 23.0174 22.3656 23.295 22.4002C23.303 22.3979 23.3371 22.3767 23.3454 22.3791L23.6331 22.4615L23.5429 22.4709C23.66 22.5079 23.766 22.544 23.8761 22.5532C23.9207 22.557 23.9793 22.5479 24.0271 22.559C24.0874 22.5732 24.1433 22.6215 24.1955 22.6422C24.3049 22.6852 24.4198 22.7085 24.5254 22.7331L24.4698 22.6859L24.5764 22.7145L24.8414 22.787L24.9994 22.833L25.08 22.8462L25.5394 22.9753L25.6372 23.0283L25.8607 23.1016C25.8684 23.1041 25.8859 23.137 25.894 23.136L25.9331 23.1306C26.0177 23.2083 26.2116 23.1961 26.2378 23.3149C26.2661 23.4443 26.1417 23.5695 26.0612 23.6467L25.9429 23.7601C25.9214 23.7809 25.8841 23.832 25.8582 23.8411L25.7066 23.8946L25.5417 23.9612C25.3676 24.0315 25.1797 24.0615 24.9942 24.098L24.8482 24.1266C24.7294 24.15 24.6018 24.1684 24.4932 24.2028C24.3522 24.2464 23.9691 24.1665 23.8964 24.049L23.8274 23.9378C23.8159 23.9191 23.7826 23.8659 23.7555 23.8586L23.3091 23.7386C23.2628 23.7262 23.2094 23.6535 23.1751 23.6187L22.5636 23.4585L22.4433 23.4654C22.3998 23.4678 22.3294 23.462 22.2802 23.4518L21.9085 23.374C21.8568 23.3631 21.7929 23.3742 21.744 23.3622C21.6921 23.3496 21.6289 23.3295 21.5923 23.3325C21.3441 23.353 21.499 23.2893 21.2474 23.3006C21.2019 23.3027 21.1237 23.3157 21.085 23.3069L20.6197 23.1997C20.5606 23.186 20.4878 23.2381 20.4594 23.1386C20.4422 23.1592 20.437 23.1739 20.4291 23.1692L20.3817 23.1404C20.2162 23.0397 20.0892 23.142 20.0122 23.0474C19.9399 22.9588 19.7093 23.0251 19.6583 23.0116L19.0978 22.8653C19.0813 22.8542 19.0347 22.818 19.0154 22.8026L17.3846 22.3677C17.3621 22.3617 17.3256 22.3904 17.3189 22.3835L17.2921 22.3566C17.1745 22.3777 17.1984 22.3136 16.9127 22.2396Z" fill="black"/>
</g>
<defs>
<clipPath id="clip0_325_2623">
<rect width="32" height="32" fill="white"/>
</clipPath>
</defs>
</svg>
