<svg width="32" height="32" viewBox="0 0 32 32" fill="none" xmlns="http://www.w3.org/2000/svg">
<g clip-path="url(#clip0_320_4579)">
<rect width="32" height="32" fill="url(#paint0_linear_320_4579)"/>
<path d="M36.7053 190.08C36.0801 190.044 27.8025 189.993 18.3108 189.966L1.05295 189.917L1.03608 188.47C1.02679 187.675 1.00351 186.357 0.984448 185.542L0.949678 184.06L-1.58801 183.992C-3.86692 183.93 -4.18736 183.875 -4.7303 183.447C-6.36597 182.159 -6.86205 179.944 -6.0742 177.448C-5.81698 176.633 -5.54917 175.966 -5.47908 175.966C-5.40901 175.966 -5.23574 175.71 -5.09411 175.398C-4.95248 175.085 -4.581 174.538 -4.26861 174.182C-3.29065 173.066 -2.90154 172.584 -1.9539 171.311C-1.4479 170.632 -0.885028 169.936 -0.703074 169.766C-0.121677 169.221 1.15806 167.065 2.61987 164.167C3.2165 162.984 3.8026 161.076 3.94764 159.845C4.0213 159.22 4.17142 158.383 4.28126 157.985C4.66406 156.598 5.19445 147.242 4.93295 146.488C4.88858 146.361 4.48571 146.091 4.03771 145.889C3.58971 145.687 3.22317 145.46 3.22317 145.384C3.22317 145.309 2.59537 144.93 1.82807 144.542C0.152957 143.695 -0.850335 142.704 -1.03644 141.712C-1.22707 140.696 -0.970431 137.702 -0.602164 136.645C-0.0838994 135.157 -0.17953 134.712 -1.16879 134.007C-2.85072 132.809 -3.43532 132.248 -3.85249 131.433C-4.22608 130.702 -4.25725 130.379 -4.13554 128.497C-4.06032 127.333 -3.86194 125.993 -3.69469 125.519C-3.16593 124.021 -3.24451 123.836 -4.73402 123.072C-5.4729 122.693 -6.07744 122.255 -6.07744 122.099C-6.07744 121.943 -6.1752 121.816 -6.29467 121.816C-6.41415 121.816 -6.65851 121.467 -6.83771 121.041C-7.10799 120.398 -7.13568 119.843 -7.00016 117.786C-6.9103 116.422 -6.81656 114.468 -6.79185 113.445C-6.76717 112.422 -6.68803 110.841 -6.61607 109.932C-6.54412 109.022 -6.38772 105.349 -6.26854 101.768C-5.9455 92.0615 -5.78839 89.4893 -5.24087 84.9423C-5.13261 84.0433 -5.04404 82.8635 -5.04404 82.3206C-5.04404 81.7777 -4.9625 81.1182 -4.86284 80.855C-4.76319 80.5919 -4.61817 79.7255 -4.54058 78.9298C-4.46301 78.1341 -4.30207 77.111 -4.18297 76.6563C-4.06388 76.2016 -3.93731 75.4111 -3.90171 74.8995C-3.76188 72.8903 -3.3933 69.4907 -3.2987 69.3377C-3.24379 69.2488 -3.06035 67.8579 -2.89109 66.2468C-2.72184 64.6357 -2.5373 63.2429 -2.48099 63.1518C-2.42467 63.0607 -2.57965 62.6673 -2.82534 62.2774C-3.07104 61.8876 -3.36849 61.4138 -3.48634 61.2245C-3.75526 60.7927 -4.59133 59.0824 -4.93467 58.2618C-6.14344 55.3728 -6.50541 54.3166 -6.70549 53.0948C-6.79855 52.5264 -6.97638 51.5498 -7.10066 50.9246C-7.38681 49.4851 -7.80569 40.589 -7.68583 38.4972C-7.61123 37.1955 -7.45639 36.6367 -6.79809 35.2936C-5.11545 31.8607 -3.78668 30.0658 -2.39535 29.3463C-2.08214 29.1843 -1.68966 28.7894 -1.52317 28.4687C-0.691434 26.8664 0.691898 26.0884 2.69397 26.0967C3.94691 26.1022 6.32337 26.6861 6.32337 26.9888C6.32337 27.081 6.42472 27.1564 6.54859 27.1564C7.01766 27.1564 7.54975 28.0941 7.55657 28.9328C7.5636 29.7714 7.24533 30.2586 6.5267 30.5102C6.0979 30.6603 5.62061 31.6031 5.77272 31.9994C5.84748 32.1942 6.14484 32.3234 6.51826 32.3234C6.98704 32.3234 7.21166 32.1838 7.43365 31.7545C8.12709 30.4136 9.12697 30.0373 10.3409 30.6605L11.1548 31.0784L12.3196 30.3242C13.5229 29.5451 13.9309 29.0259 14.7278 27.2597C15.3575 25.8639 15.3922 23.7227 14.7973 22.9664C14.57 22.6774 14.3839 22.3715 14.3839 22.2868C14.3839 22.202 14.1385 21.6121 13.8385 20.9759C13.3114 19.858 12.5041 18.8892 12.0998 18.8892C11.992 18.8892 11.9038 18.8193 11.9038 18.7338C11.9038 18.6484 11.4751 18.3511 10.9512 18.0731C10.0032 17.5702 9.99919 17.5636 10.1201 16.6812C10.2193 15.9576 10.1495 15.6588 9.74052 15.0561C9.46489 14.6499 9.29085 14.1834 9.35378 14.0194C9.41674 13.8554 9.41088 13.493 9.34089 13.2141C9.24276 12.8231 9.03637 12.6777 8.4402 12.5796C7.32995 12.3969 6.74253 12.0604 6.60962 11.5308C6.54564 11.2759 6.73957 10.3561 7.04211 9.47959C7.7842 7.32954 7.7224 7.22353 5.82044 7.38431C4.19631 7.5216 3.10359 7.29421 2.64887 6.72432C2.3162 6.3074 2.51303 5.32774 3.04397 4.75784C3.43114 4.34227 3.42952 4.32934 2.93263 3.8686C2.65532 3.61146 2.36847 3.21215 2.29518 2.98126C2.18263 2.62663 1.98622 2.56145 1.03007 2.56145H-0.101797L-0.0411028 1.06302C0.0174056 -0.381326 0.0382679 -0.43541 0.536324 -0.43541C0.986315 -0.43541 1.04508 -0.515463 0.991516 -1.05545C0.931992 -1.65513 0.723748 -2.35444 0.283608 -3.43228C-0.399191 -5.10432 -1.14451 -6.05444 -2.3572 -6.79873C-2.75505 -7.04291 -3.26087 -7.40842 -3.48124 -7.61097C-3.79674 -7.90096 -4.25804 -7.9828 -5.65139 -7.996C-6.6246 -8.00523 -7.79289 -8.02848 -8.24759 -8.04768L-9.07431 -8.08258L-9.13188 -10.6844L-9.18945 -13.2862L7.71258 -13.3478C17.0087 -13.3816 25.6377 -13.4075 26.8881 -13.4053C28.1385 -13.4031 34.3002 -13.3904 40.5807 -13.3771L51.9997 -13.3529V-10.6661V-7.97924L49.4679 -7.97799C47.626 -7.97705 46.7747 -7.89258 46.3441 -7.66797C46.0185 -7.49817 45.6762 -7.35923 45.5834 -7.35923C45.193 -7.35923 43.9556 -6.36603 43.3234 -5.54536C42.8112 -4.88046 42.5579 -4.24055 42.3008 -2.96186C41.895 -0.944004 41.942 -0.538788 42.5819 -0.538788C43.0114 -0.538788 43.0732 -0.402685 43.2628 0.959649C43.3774 1.78379 43.4315 2.52783 43.383 2.61309C43.3345 2.69834 42.812 2.76827 42.2219 2.76847C41.2319 2.7688 41.0624 2.84604 40.0285 3.76777C39.2987 4.41843 38.9924 4.81888 39.1501 4.91634C39.5844 5.18473 39.4057 5.8966 38.7503 6.50876C38.3973 6.83855 37.9323 7.10838 37.7169 7.10838C37.5016 7.10838 37.3254 7.20139 37.3254 7.31506C37.3254 7.42874 37.1859 7.52175 37.0154 7.52175C36.8449 7.52175 36.7054 7.60211 36.7054 7.70033C36.7054 7.99999 34.9602 8.13882 33.7235 7.93754C32.2995 7.70578 32.042 7.79214 31.762 8.59546C31.5226 9.28225 31.5267 9.29318 32.511 10.5861C32.8855 11.0779 33.1918 11.6622 33.1918 11.8845C33.1918 12.584 32.6409 13.6449 31.9019 14.3682C30.7148 15.5301 29.1513 16.9404 28.6992 17.2571C28.4646 17.4214 28.0582 17.9256 27.7962 18.3775C27.5343 18.8294 27.2568 19.2457 27.1796 19.3025C26.901 19.5078 26.1647 20.9768 26.1647 21.3276C26.1647 21.5251 25.9322 22.0289 25.648 22.4471C25.0416 23.3395 24.9878 24.2836 25.4499 25.9229C25.6251 26.5445 25.855 27.3882 25.9609 27.798C26.0667 28.2077 26.4037 29.0255 26.7097 29.6154C27.3002 30.7535 27.3431 30.7677 28.8863 30.3359C29.0834 30.2808 29.555 30.5239 29.9876 30.9037C30.6897 31.5202 30.7923 31.5505 31.4143 31.3256C33.0859 30.7212 34.6343 31.3523 35.3997 32.95C35.5341 33.2306 35.6503 33.3438 35.658 33.2018C35.6658 33.0597 35.8988 32.9434 36.1759 32.9434C36.8256 32.9434 39.1764 32.4012 40.6323 31.9155C42.8129 31.1881 43.3021 30.9042 43.599 30.1935C43.9857 29.268 44.8332 28.7206 45.4053 29.0268C45.7415 29.2067 45.9114 29.1858 46.1945 28.9296C46.3929 28.7501 46.6208 28.6031 46.701 28.6031C46.7811 28.6031 47.1194 28.3241 47.4528 27.9831C48.2569 27.1605 48.5696 27.1775 48.401 28.0347C48.3283 28.4042 48.2417 28.8459 48.2087 29.0165C48.1755 29.187 48.0261 29.6907 47.8766 30.1359C47.6376 30.8475 47.6455 30.9752 47.942 31.1921C48.1276 31.3278 48.2795 31.5478 48.2795 31.6809C48.2795 31.814 48.419 31.9765 48.5895 32.0419C48.76 32.1074 48.8995 32.2827 48.8995 32.4316C48.8995 32.5804 48.9896 32.7332 49.0997 32.7711C49.2098 32.809 49.7679 33.394 50.3398 34.0712C51.0954 34.9657 51.3788 35.4743 51.3765 35.9313C51.3734 36.5476 51.0206 37.7558 50.6956 38.2629C50.4666 38.6202 50.0046 40.45 49.7136 42.1527C49.5787 42.9418 49.2938 43.9536 49.0805 44.4013C48.8673 44.8489 48.6928 45.3372 48.6928 45.4863C48.6928 45.6355 48.6016 45.7575 48.4901 45.7575C48.3786 45.7575 48.2262 46.0133 48.1516 46.3259C48.0769 46.6385 47.9433 46.9875 47.8548 47.1014C47.7151 47.2811 47.2941 48.7396 46.6317 51.3379C46.2394 52.8767 45.5855 55.016 45.0839 56.4016C44.6205 57.6814 44.5839 57.9779 44.7663 58.9714C44.8798 59.589 44.9731 60.5191 44.9737 61.0382C44.9743 61.5572 45.0647 62.3075 45.1746 62.7053C45.3994 63.5198 45.7295 66.4 46.0036 69.9391C46.1049 71.2464 46.2321 72.6415 46.2863 73.0393C46.3405 73.4372 46.4882 74.7858 46.6144 76.0362C46.7406 77.2866 46.9333 79.0537 47.0426 79.9631C47.2589 81.7644 47.3603 84.416 47.6626 96.1875C47.9204 106.228 48.2233 113.415 48.4814 115.615C48.9263 119.41 48.9662 120.162 48.7225 120.162C48.5925 120.162 48.3196 120.325 48.116 120.524C47.9124 120.723 47.2846 121.256 46.7209 121.709C46.1572 122.162 45.5152 122.698 45.2943 122.899C45.0734 123.1 44.48 123.464 43.9756 123.708L43.0586 124.152L43.1821 125.476C43.2544 126.249 43.1876 127.503 43.022 128.493C42.866 129.424 42.678 130.624 42.6042 131.158C42.5305 131.692 42.1543 132.725 41.7682 133.452C41.0753 134.758 41.0667 134.807 41.1002 137.234C41.139 140.051 40.774 141.5 39.7917 142.427C39.4717 142.729 39.2551 143.049 39.3103 143.139C39.3655 143.228 39.3111 143.67 39.1901 144.12C38.9593 144.978 38.0146 146.09 36.5795 147.193C35.807 147.787 35.7175 147.954 35.5898 149.04C35.5126 149.697 35.4532 152.281 35.4579 154.781C35.4688 160.662 35.7197 162.277 37.022 164.852C37.5554 165.906 38.1208 166.916 38.2786 167.095C38.4364 167.275 38.5655 167.482 38.5655 167.557C38.5655 167.814 39.8877 169.871 40.583 170.696C40.9666 171.15 41.7433 172.446 42.309 173.575C43.2776 175.507 43.5716 175.848 44.7142 176.365C44.97 176.481 45.1793 176.671 45.1793 176.788C45.1793 176.904 45.3188 176.999 45.4893 176.999C45.6598 176.999 45.7993 177.139 45.7993 177.31C45.7993 177.48 45.9066 177.62 46.0377 177.62C46.3308 177.62 47.6326 179.014 48.1244 179.855C48.9279 181.229 48.3701 183.082 46.9377 183.797C46.2225 184.154 45.6869 184.233 43.9851 184.233C42.8417 184.233 41.7752 184.284 41.6152 184.345C41.3783 184.436 41.3418 184.974 41.4186 187.238L41.5129 190.02H39.9528C39.0947 190.02 38.2687 190.049 38.1174 190.083C37.966 190.117 37.3305 190.116 36.7053 190.08ZM40.1265 189.148C40.2084 189.066 40.3199 187.962 40.3741 186.695C40.4507 184.903 40.4107 184.352 40.1944 184.218C40.0414 184.124 31.3812 184.042 20.9496 184.036L1.98301 184.026V186.597V189.167L2.65472 189.234C4.05244 189.373 39.9843 189.29 40.1265 189.148ZM4.77821 181.131C4.83211 180.052 5.01051 178.472 5.17465 177.62C5.63127 175.248 5.77468 173.279 5.49084 173.279C5.35981 173.279 4.89175 173.535 4.45071 173.848C3.72716 174.361 3.01847 175.536 3.01523 176.229C3.01366 176.555 1.90087 180.028 1.56267 180.762C1.36398 181.193 1.35998 181.454 1.54517 181.901C1.74396 182.381 2.00667 182.538 3.07253 182.815C3.78054 182.999 4.4319 183.137 4.52001 183.121C4.60812 183.106 4.72432 182.21 4.77821 181.131ZM46.6109 182.449C47.267 181.615 47.1827 180.484 46.3978 179.59C46.045 179.188 45.6265 178.86 45.4678 178.86C45.309 178.86 45.1792 178.769 45.1792 178.658C45.1792 178.548 44.9002 178.313 44.5591 178.136C43.9457 177.819 43.9391 177.821 43.9391 178.362C43.9391 178.663 44.1422 179.501 44.3905 180.224C44.9013 181.712 44.7876 182.099 44.097 181.222C43.6129 180.608 43.3818 180.062 42.6883 177.897C42.2876 176.645 42.1164 176.274 41.3674 175.034C40.4864 173.575 39.5435 173.371 35.6165 173.789L34.011 173.96L34.1383 174.704C34.2082 175.114 34.3959 176.036 34.5553 176.754C34.7147 177.472 34.8452 178.74 34.8452 179.574C34.8452 180.765 34.9151 181.116 35.1721 181.214C35.8697 181.482 37.1848 181.317 38.3865 180.811C39.8998 180.174 40.4609 180.253 41.648 181.269C43.6308 182.967 45.7984 183.482 46.6109 182.449ZM-1.78884 181.548C-1.17338 180.43 -0.741041 180.161 -0.105181 180.502C0.118986 180.622 0.37827 180.719 0.470993 180.717C0.725251 180.714 1.30462 179.314 1.58168 178.033C1.71696 177.408 1.90206 176.664 1.99305 176.38C2.08403 176.095 2.26836 175.372 2.40266 174.772L2.64684 173.682L1.95324 173.071C1.16477 172.376 0.344198 172.279 -0.14814 172.823C-0.332445 173.027 -0.72156 173.84 -1.01284 174.631C-1.30411 175.422 -1.62534 176.255 -1.72667 176.483C-2.58708 178.413 -3.46263 180.297 -3.71104 180.752C-4.12559 181.511 -4.09579 182.321 -3.64903 182.437C-2.61148 182.709 -2.36241 182.589 -1.78884 181.548ZM33.0932 181.728C33.8992 181.184 34.0185 181.009 34.0185 180.367C34.0185 178.79 32.9154 173.05 32.5075 172.504C32.3152 172.247 29.4586 172.121 29.2204 172.359C29.1581 172.422 29.1809 172.817 29.2711 173.238C29.4714 174.172 30.1394 177.977 30.2044 178.554C30.2303 178.784 30.1737 179.464 30.0785 180.066C29.9072 181.15 30.1084 182.055 30.604 182.429C30.9685 182.705 32.1318 182.377 33.0932 181.728ZM12.9371 181.518C13.3378 181.34 13.8249 181.369 15.1072 181.651C18.1151 182.311 18.5256 182.298 19.3445 181.515C20.0092 180.88 20.0613 180.738 20.0643 179.559C20.0674 178.454 19.9997 178.23 19.5508 177.852C18.8291 177.243 18.2021 177.115 17.4567 177.424C16.8369 177.681 16.7928 177.662 16.0183 176.797C15.5788 176.307 15.1645 175.733 15.0976 175.523C15.0307 175.312 14.8893 175.139 14.7833 175.139C14.6771 175.139 14.5905 174.226 14.5905 173.106C14.5905 171.127 14.5763 171.066 14.0641 170.832C13.7745 170.7 12.9903 170.592 12.3212 170.592C11.2846 170.592 11.0853 170.654 10.973 171.008C10.9005 171.236 11.0009 172.631 11.1961 174.108C11.4883 176.319 11.5091 177.046 11.3139 178.228C11.0212 180 11.0128 181.144 11.2872 181.866C11.4884 182.395 11.5174 182.404 11.9589 182.084C12.2127 181.9 12.6529 181.645 12.9371 181.518ZM9.097 180.461C9.1491 180.206 9.25257 179.392 9.32692 178.653C9.40129 177.914 9.53052 176.659 9.61413 175.863C9.69775 175.067 9.75881 173.765 9.74984 172.969L9.73351 171.523L9.11347 171.568C8.49859 171.614 7.58588 172.454 7.14186 173.383C7.03321 173.61 6.83002 173.956 6.69033 174.152C6.48485 174.439 6.50915 174.696 6.81751 175.495C7.02715 176.038 7.2649 177.241 7.34584 178.168C7.47799 179.681 7.55455 179.906 8.09655 180.383C8.84243 181.039 8.97728 181.049 9.097 180.461ZM29.2033 179.015C29.1398 178.532 28.9376 177.299 28.7538 176.276C28.57 175.253 28.3644 173.061 28.2968 171.404L28.1739 168.392L27.3745 168.045C26.3443 167.599 25.8236 167.607 25.7025 168.07C25.6492 168.274 25.5873 169.273 25.5649 170.291C25.5426 171.31 25.429 172.515 25.3125 172.969C25.0275 174.082 24.4701 175.346 24.2647 175.346C24.1729 175.346 24.0978 175.473 24.0978 175.627C24.0978 175.782 23.8536 176.084 23.5551 176.299C23.2566 176.514 22.8011 176.893 22.543 177.143C22.086 177.584 22.0823 177.62 22.4021 178.509L22.7307 179.423L25.1193 179.4C26.6735 179.384 27.6524 179.464 27.9214 179.628C28.1487 179.767 28.5561 179.883 28.8266 179.887C29.2863 179.893 29.311 179.836 29.2033 179.015ZM24.0387 172.123L24.6514 172.001L24.5869 166.078L24.5225 160.155L23.9886 159.69C23.6949 159.434 23.1863 159.225 22.8583 159.225C22.5303 159.225 22.2045 159.132 22.1343 159.018C22.064 158.905 21.2214 158.812 20.2617 158.812H18.5169L17.7195 159.633L16.9221 160.455L16.7963 165.369C16.7271 168.071 16.6099 170.539 16.5359 170.853L16.4013 171.425L17.6951 170.693C20.1126 169.327 22.0568 169.66 22.8398 171.574C23.1379 172.303 23.1385 172.303 24.0387 172.123ZM6.73349 169.531C6.73505 169.189 6.60276 168.949 6.37496 168.883C6.17603 168.826 5.85051 168.712 5.65158 168.63C5.34237 168.503 5.2899 168.602 5.2899 169.313C5.2899 170.036 5.36434 170.17 5.85827 170.338C6.51377 170.56 6.72866 170.362 6.73349 169.531ZM4.46318 169.112C4.46318 168.421 3.87186 166.872 3.6084 166.872C3.36411 166.872 2.80973 167.754 2.80973 168.142C2.80973 168.595 3.79147 169.766 4.17153 169.766C4.36116 169.766 4.46318 169.537 4.46318 169.112ZM36.8603 169.632C37.4571 169.56 37.9454 169.415 37.9454 169.309C37.9454 168.819 37.2977 168.526 36.2185 168.526C34.932 168.526 34.705 168.237 35.1999 167.228C35.4044 166.812 35.4283 166.462 35.2872 165.951C35.1803 165.563 35.1534 165.182 35.2274 165.102C35.5211 164.786 33.6846 165.271 33.3495 165.598C33.0091 165.93 33.0237 166.047 33.6329 167.857L34.2753 169.766L35.0252 169.764C35.4377 169.763 36.2635 169.703 36.8603 169.632ZM31.7066 167.445C31.7513 167.058 31.6079 166.716 31.251 166.359C30.6559 165.764 29.9313 165.697 29.0458 166.155C28.4505 166.463 28.4424 166.488 28.7449 167.073C29.2194 167.99 29.7393 168.263 30.7566 168.127C31.5319 168.024 31.6497 167.939 31.7066 167.445ZM9.59174 167.804C9.68953 167.71 9.70566 166.463 9.61001 166.389C9.56423 166.354 9.08502 166.364 8.54507 166.413L7.56335 166.501V167.33V168.159L8.54507 168.013C9.08502 167.933 9.55605 167.839 9.59174 167.804ZM6.52998 166.03C6.52998 164.957 6.47873 164.785 6.1764 164.843C5.98193 164.881 5.68931 165.262 5.52615 165.691C5.25341 166.407 5.26109 166.502 5.62139 166.866C6.32473 167.575 6.52998 167.387 6.52998 166.03ZM14.6707 165.979C14.8773 165.209 14.8102 164.641 14.4724 164.303C14.0799 163.911 12.5327 163.868 12.0767 164.237C11.5482 164.665 11.0769 165.488 11.0769 165.984C11.0769 166.412 11.1493 166.442 11.9553 166.343C12.4385 166.283 13.1127 166.317 13.4538 166.418C14.2354 166.65 14.5182 166.548 14.6707 165.979ZM27.7997 163.895C28.1951 163.474 28.2295 163.328 28.0241 162.944C27.8078 162.54 27.6762 162.506 26.818 162.635C26.2881 162.714 25.7848 162.822 25.6996 162.874C25.1576 163.208 26.0853 164.372 26.9036 164.385C27.1396 164.389 27.5428 164.168 27.7997 163.895ZM26.5392 163.837C26.6884 163.778 26.8667 163.785 26.9353 163.854C27.004 163.922 26.882 163.971 26.6641 163.962C26.4233 163.952 26.3743 163.903 26.5392 163.837ZM6.87444 162.221C7.01609 161.539 7.13604 160.819 7.141 160.62C7.15155 160.196 6.59227 160.145 5.81632 160.498C5.33373 160.718 5.2899 160.846 5.2899 162.033C5.2899 163.092 5.3559 163.346 5.65158 163.425C6.44087 163.636 6.61608 163.463 6.87444 162.221ZM30.2237 162.521C30.3749 162.016 30.5 161.31 30.5017 160.953C30.5041 160.422 30.4052 160.278 29.9583 160.166C29.6577 160.091 29.3313 160.109 29.233 160.208C28.9251 160.515 28.9758 163.179 29.2935 163.381C29.747 163.668 29.9321 163.497 30.2237 162.521ZM9.48654 162.751C9.68389 162.417 10.0295 162.085 10.2545 162.014C10.4795 161.942 10.6636 161.753 10.6636 161.592C10.6636 161.137 9.73841 161.015 8.76065 161.339C7.92287 161.618 7.86986 161.682 7.80984 162.496C7.74703 163.349 7.75407 163.359 8.43699 163.359C8.98208 163.359 9.20335 163.231 9.48654 162.751ZM32.4572 162.963C32.5214 162.859 32.956 162.71 33.4232 162.631L34.2725 162.488L34.1327 161.425C34.0559 160.84 33.9239 160.292 33.8395 160.206C33.7551 160.12 33.1978 160.195 32.6012 160.372L31.5163 160.694L31.6635 161.665C31.7444 162.199 31.8114 162.751 31.8123 162.894C31.8138 163.192 32.2844 163.243 32.4572 162.963ZM14.4737 162.124C14.7653 162.013 15.0039 161.784 15.0039 161.614C15.0039 161.147 14.3216 160.878 13.1349 160.878C12.0717 160.878 12.0664 160.875 12.2074 160.31C12.3752 159.638 12.889 159.018 13.2791 159.018C13.7077 159.018 13.608 158.236 13.1613 158.094C12.5289 157.893 11.7467 158.187 11.616 158.674C11.4179 159.413 11.4743 160.627 11.7473 161.502C11.9991 162.308 12.0241 162.325 12.9739 162.325C13.5072 162.325 14.1821 162.235 14.4737 162.124ZM27.198 159.816V158.134L26.1288 158.261C25.5407 158.33 24.9862 158.461 24.8967 158.55C24.6195 158.827 25.21 159.718 25.7529 159.841C26.0808 159.916 26.4055 160.238 26.6466 160.728C26.8549 161.152 27.0642 161.498 27.1117 161.498C27.1592 161.498 27.198 160.741 27.198 159.816ZM6.84878 157.813C6.92159 157.282 7.07089 156.493 7.18065 156.059C7.31571 155.525 7.30464 154.906 7.14644 154.144C6.99844 153.431 6.9715 152.469 7.073 151.523C7.2637 149.745 7.19891 145.544 6.93202 142.381C6.82652 141.13 6.73367 139.084 6.72567 137.834C6.7177 136.583 6.62071 134.863 6.51022 134.01C6.39973 133.157 6.2871 130.088 6.25993 127.19C6.2229 123.237 6.14108 121.795 5.93277 121.423C5.72072 121.044 5.65996 119.797 5.67593 116.152C5.69945 110.794 5.82426 108.878 6.2312 107.629C6.40052 107.109 6.5311 105.58 6.56335 103.739C6.59257 102.07 6.67821 100.667 6.75362 100.621C7.08351 100.417 7.1719 104.104 7.03836 112.497C6.92899 119.372 6.95648 121.824 7.15446 122.849C7.29714 123.588 7.43324 126.006 7.4569 128.223C7.48385 130.751 7.59102 132.476 7.74428 132.851C7.88004 133.183 7.97964 134.331 7.96838 135.434C7.92424 139.759 8.29672 154.654 8.45287 154.81C8.54423 154.901 9.25051 155.011 10.0224 155.055L11.4257 155.134L11.6405 153.304C11.7587 152.298 11.8713 150.172 11.8909 148.581C11.9104 146.99 12.0631 144.339 12.2302 142.691C12.6312 138.735 12.7003 137.952 12.8319 135.87C12.9507 133.99 13.0096 133.35 13.3457 130.29C13.4642 129.21 13.6053 127.908 13.6592 127.396C13.7131 126.885 13.8067 124.42 13.8674 121.919C13.9281 119.418 14.0596 116.489 14.1596 115.409C14.2597 114.329 14.3613 113.12 14.3855 112.722C14.4096 112.324 14.4579 111.813 14.4927 111.585C14.5276 111.358 14.5638 109.748 14.5733 108.008C14.5845 105.955 14.6631 104.889 14.7972 104.971C15.0534 105.13 15.0662 108.926 14.818 111.172C14.7175 112.081 14.6988 114.034 14.7764 115.512C14.8541 116.99 14.8432 119.057 14.7523 120.105C14.6613 121.154 14.5542 122.967 14.5142 124.135C14.4742 125.304 14.3225 127.748 14.1772 129.566C14.0318 131.385 13.9172 133.059 13.9224 133.287C13.9279 133.514 13.8481 134.77 13.7457 136.077C13.6433 137.384 13.51 141.367 13.4495 144.929C13.3889 148.49 13.3309 151.466 13.3204 151.543C13.2349 152.166 13.3733 152.241 14.3321 152.091C14.8721 152.006 15.4301 151.933 15.5722 151.929C15.7625 151.924 15.8305 151.334 15.8305 149.688C15.8305 146.589 15.9876 143.047 16.2582 140.046C16.3842 138.648 16.4351 137.368 16.3713 137.202C16.3076 137.036 16.3651 136.412 16.4989 135.816C16.6601 135.1 16.7542 131.938 16.7772 126.466C16.7963 121.919 16.8694 117.873 16.9397 117.476C17.2551 115.69 17.47 110.914 17.4767 105.54C17.4814 101.658 17.5557 99.7011 17.6979 99.7011C17.8366 99.7011 17.8265 99.5415 17.669 99.2473C17.409 98.7613 17.3137 93.9147 17.4668 88.9537C17.6155 84.1328 16.8988 78.4374 16.1735 78.6769C16.0303 78.7242 15.8787 79.4975 15.7965 80.5997C15.7209 81.6137 15.5527 83.0013 15.4227 83.6834C15.2926 84.3654 15.1327 85.2955 15.0672 85.7502C15.0016 86.2049 14.873 86.6729 14.7814 86.7902C14.2582 87.4597 13.993 93.6551 14.4052 95.5773C14.5537 96.2694 14.5628 96.7113 14.4314 96.8427C13.6561 97.618 13.3168 88.5806 13.9761 84.7168C14.0954 84.0178 14.1282 82.5902 14.0513 81.4451C13.9366 79.737 13.8703 79.458 13.6351 79.6932C13.1941 80.1342 12.9514 81.7155 12.642 86.1635C12.1067 93.858 11.4233 95.3916 11.2244 89.3449C11.1567 87.2865 11.0478 85.5489 10.9823 85.4834C10.6538 85.1548 10.4163 86.0449 10.1347 88.6602C9.62416 93.402 9.44743 95.6975 9.30853 99.3911C9.23588 101.324 9.17131 102.998 9.16508 103.111C9.12751 103.797 9.48028 110.786 9.55891 110.914C9.61148 110.999 9.53275 111.07 9.38398 111.072C9.20388 111.074 9.18801 111.126 9.33648 111.227C9.46216 111.312 9.57932 112.191 9.60481 113.239C9.66239 115.605 9.77929 117.014 10.0646 118.781C10.1897 119.556 10.2423 120.239 10.1815 120.3C9.9066 120.575 9.62977 120.062 9.62629 119.272C9.62395 118.795 9.43721 116.871 9.21077 114.995C8.61569 110.066 8.38025 105.641 8.41907 100.114C8.43781 97.4431 8.43289 94.1879 8.40797 92.8807C8.38313 91.5734 8.46344 89.4808 8.58649 88.2304C8.71308 86.9435 8.75061 84.8561 8.67295 83.4204C8.53873 80.9391 8.52831 80.8964 8.19287 81.457C8.00428 81.7721 7.6347 82.899 7.37157 83.9611C6.95822 85.6297 6.87183 86.6696 6.73628 91.6083C6.6465 94.8795 6.47833 97.6337 6.34311 98.0477C6.21317 98.4455 6.04778 100.747 5.97559 103.163C5.87814 106.424 5.779 107.555 5.59072 107.555C5.23989 107.555 4.99459 101.505 5.17384 97.2741C5.24969 95.4829 5.35252 92.0643 5.4023 89.6771C5.48349 85.7829 5.70327 82.4263 6.04171 79.9115C6.17772 78.9008 5.99147 78.8208 5.36271 79.6199C4.36991 80.8816 4.24786 81.9 3.9963 91.0205C3.86619 95.738 3.76519 100.156 3.77187 100.838C3.90262 114.198 4.03688 119.03 4.33175 120.989C4.51142 122.183 4.80691 126.042 4.98838 129.566C5.43295 138.199 5.62676 140.785 6.00297 143.104C6.49008 146.106 6.38738 153.385 5.78898 158.269L5.64027 159.482L6.17832 159.13C6.58377 158.864 6.74908 158.54 6.84878 157.813ZM10.0435 158.831C10.6702 158.711 10.8043 158.576 11.0464 157.817C11.2677 157.124 11.2732 156.878 11.0728 156.637C10.747 156.244 10.3177 156.252 8.93819 156.677C7.83658 157.016 7.81427 157.039 7.69095 157.938C7.6219 158.442 7.61315 158.932 7.6715 159.026C7.7727 159.19 8.45455 159.134 10.0435 158.831ZM33.6732 158.822C33.7675 158.73 33.8213 157.411 33.7926 155.891C33.764 154.371 33.7379 152.709 33.7346 152.198C33.7221 150.253 34.0317 142.048 34.2259 139.177C34.3373 137.529 34.5768 133.669 34.758 130.6C34.9391 127.531 35.1238 124.554 35.1683 123.986C35.2942 122.38 35.4608 119.402 35.6772 114.892C35.7862 112.619 35.9142 110.526 35.9615 110.242C36.4173 107.503 36.4344 104.688 36.0015 103.628C35.6602 102.792 36.1773 92.1724 36.6909 89.4704C36.9385 88.1676 36.97 84.8804 36.7363 84.7359C36.6396 84.6763 36.4991 83.7174 36.424 82.6053C36.2738 80.3825 35.7941 78.0255 35.2998 77.0814C35.0713 76.6449 35.0491 76.4505 35.2214 76.3931C35.5704 76.2767 34.9718 75.7259 34.4982 75.7275C34.2912 75.7281 33.8676 75.8613 33.5569 76.0234C33.2187 76.1999 32.9432 76.2391 32.8703 76.1211C32.757 75.9378 30.3988 76.0697 30.0405 76.2795C29.9557 76.3291 29.8896 77.6433 29.8937 79.1999C29.9007 81.7966 29.5767 86.4573 29.0652 91.1239C28.9531 92.1469 28.8818 93.542 28.9067 94.2241C29.0041 96.8928 28.8463 100.941 28.6447 100.941C28.1841 100.941 28.5619 88.3232 29.0717 86.6802C29.4291 85.5284 29.4761 81.2154 29.1549 79.0331C28.996 77.9532 28.8627 76.9999 28.8587 76.9146C28.8548 76.8293 29.0607 76.7503 29.3165 76.739C29.76 76.7193 29.7576 76.7113 29.2648 76.5657C28.9806 76.4817 28.7738 76.2977 28.8052 76.1567C28.8379 76.0096 28.7059 75.9303 28.4952 75.9705C28.2933 76.009 28.0984 76.2487 28.062 76.5034C28.0257 76.758 27.8516 76.9663 27.675 76.9663C27.4132 76.9663 27.4015 76.9092 27.6114 76.6563C27.7967 76.4329 27.802 76.3463 27.6302 76.3463C27.499 76.3463 27.3414 76.4774 27.2799 76.6376C27.1063 77.0901 26.2123 77.2209 25.587 76.8854C25.2795 76.7204 24.8884 76.5321 24.7179 76.4671C24.5473 76.4021 24.2683 76.26 24.0978 76.1513C23.9273 76.0426 23.3442 75.8966 22.8021 75.8267C22.1813 75.7467 21.8667 75.6181 21.9524 75.4794C22.0316 75.3513 21.9684 75.302 21.8014 75.3614C21.6435 75.4177 21.3615 75.3853 21.1748 75.2895C20.9006 75.1489 20.8096 75.252 20.702 75.8252C20.6288 76.2156 20.3398 76.7152 20.0599 76.9354C19.5468 77.339 19.3437 77.7388 19.7926 77.4613C19.9626 77.3563 19.9872 77.4294 19.8756 77.7074C19.7883 77.925 19.6606 78.475 19.592 78.9297C19.4683 79.7488 19.4659 79.7507 19.3354 79.1364C19.2066 78.5305 19.1976 78.5387 18.9393 79.4981C18.794 80.0381 18.5876 80.4798 18.4807 80.4798C18.3738 80.4798 18.3539 80.5891 18.4364 80.7226C18.5189 80.8562 18.5735 81.5305 18.5577 82.2211C18.5371 83.1167 18.5823 83.3582 18.7153 83.0633C18.8545 82.7547 18.9054 82.9422 18.9163 83.8039C18.9243 84.4386 18.8666 85.0221 18.7882 85.1005C18.7098 85.179 18.6665 85.7292 18.6921 86.3234C18.7258 87.1045 18.681 87.3178 18.5306 87.0936C18.3843 86.8757 18.3668 87.0292 18.4716 87.6103C18.5537 88.065 18.6009 88.8556 18.5765 89.3671C18.3344 94.4548 18.1902 104.493 18.2665 110.951C18.2784 111.967 18.2343 112.885 18.1683 112.992C18.1023 113.099 18.0146 113.756 17.9734 114.452C17.8496 116.543 17.6791 117.475 17.4197 117.479C17.2393 117.481 17.2424 117.525 17.4313 117.645C17.6245 117.768 17.6502 118.269 17.5346 119.657C17.45 120.674 17.4585 123.133 17.5536 125.123C17.6486 127.112 17.7399 129.065 17.7563 129.463C17.7727 129.861 17.7218 130.93 17.6431 131.84C17.3988 134.665 17.2123 141.451 17.379 141.451C17.4661 141.451 18.182 141.218 18.9698 140.934C20.0239 140.554 20.8221 140.416 21.9917 140.414C22.8659 140.412 23.6849 140.342 23.8116 140.259C24.2243 139.987 24.3207 139.263 24.414 135.731C24.5639 130.053 24.5428 128.032 24.3097 125.743C23.962 122.329 23.7085 115.959 23.9067 115.615C24.037 115.389 24.0879 115.473 24.0951 115.925C24.1006 116.267 24.251 118.917 24.4295 121.816C24.608 124.715 24.8438 129.086 24.9536 131.53C25.0634 133.974 25.2053 136.997 25.269 138.247C25.4455 141.713 25.3683 144.601 25.0243 147.397C24.7428 149.686 24.7439 149.995 25.035 150.558C25.3731 151.212 26.0463 151.578 26.9112 151.578H27.4241L27.3153 147.186C27.1943 142.298 26.9093 136.833 26.5475 132.46C26.2992 129.459 26.1209 112.977 26.3122 110.707C26.5367 108.043 26.7341 109.571 26.7527 114.117C26.78 120.804 27.1841 132.35 27.4157 133.059C27.5234 133.389 27.6172 135.016 27.6242 136.676C27.6312 138.336 27.7276 140.391 27.8382 141.244C27.9489 142.096 28.126 144.608 28.2319 146.824C28.5248 152.953 28.5899 153.4 29.2386 153.728C29.5373 153.879 30.1166 154.063 30.526 154.137L31.2704 154.272L31.4044 152.687C31.4781 151.815 31.54 150.395 31.542 149.532C31.5443 148.668 31.6748 147.351 31.8327 146.607C31.9906 145.862 32.1848 143.862 32.2643 142.163C32.3573 140.175 32.5544 138.521 32.8171 137.524C33.1757 136.161 33.2169 135.435 33.1569 131.53C33.0915 127.287 33.3957 120.827 33.8378 117.062C33.9513 116.096 34.0978 114.492 34.1634 113.497C34.2289 112.502 34.3525 111.689 34.438 111.689C34.6857 111.689 34.7885 113.15 34.6047 114.06C34.4089 115.028 33.9849 119.862 33.9243 121.816C33.9014 122.555 33.7587 124.532 33.6073 126.211C33.3783 128.749 33.3782 129.662 33.6065 131.644C33.8485 133.745 33.8408 134.264 33.5416 136.034C32.9698 139.415 32.796 141.201 32.6721 144.964C32.6067 146.953 32.4799 149.116 32.3904 149.77C32.3009 150.423 32.2661 150.996 32.313 151.043C32.3599 151.09 32.3873 152.961 32.3738 155.201L32.3493 159.274L32.9256 159.131C33.2425 159.053 33.5789 158.914 33.6732 158.822ZM28.4265 126.828C28.4202 123.219 28.3953 116.419 28.3712 111.718C28.3471 107.017 28.3782 102.692 28.4397 102.107C28.6964 99.6759 28.823 105.6 28.7835 118.199C28.7611 125.36 28.7953 131.708 28.8597 132.305C28.9473 133.118 28.9093 133.39 28.7074 133.39C28.4921 133.39 28.4358 132.075 28.4265 126.828ZM23.9311 111.895C23.9122 110.02 23.756 105.974 23.5842 102.905C23.1896 95.8565 23.1668 90.8151 23.5295 90.8107C23.7229 90.8083 23.7186 90.7637 23.5122 90.6328C23.3042 90.5009 23.2755 90.185 23.3953 89.3442C23.4826 88.7316 23.5278 86.3935 23.4957 84.1484C23.4538 81.2193 23.5035 80.0665 23.6708 80.0665C23.7991 80.0665 23.9622 80.2178 24.0332 80.4027C24.1041 80.5876 24.0468 84.2381 23.9059 88.5149C23.5644 98.88 23.5473 97.5028 24.1052 104.621C24.3389 107.602 24.3492 113.293 24.1231 114.479C24.0195 115.022 23.9537 114.138 23.9311 111.895ZM32.3699 99.46C32.3731 99.0811 32.465 98.399 32.5752 97.9443C32.6854 97.4896 32.8242 94.6994 32.8838 91.7439C32.9433 88.7884 33.0925 85.3564 33.2153 84.1174C33.4363 81.8874 33.3112 78.31 32.9706 77.1227C32.8474 76.6929 32.868 76.5484 33.0443 76.6071C33.6073 76.7948 33.8251 80.3323 33.5564 84.9235C33.4434 86.8559 33.3682 90.0181 33.3894 91.9506C33.4107 93.8831 33.3304 95.895 33.2111 96.4216C33.0918 96.9482 32.9532 97.9687 32.903 98.6895C32.8084 100.049 32.3611 100.696 32.3699 99.46ZM25.383 84.3034L25.4007 77.793H26.0015C26.4296 77.793 26.5565 77.8673 26.4427 78.0513C26.2347 78.3879 25.8673 85.5003 25.9036 88.4887C25.926 90.3339 25.8733 90.8139 25.6485 90.8139C25.4143 90.8139 25.3683 89.688 25.383 84.3034ZM28.023 83.7351C28.0222 83.0246 27.9346 81.6528 27.8287 80.6865C27.5087 77.7687 27.5 77.5204 27.7147 77.4489C27.8284 77.411 27.9361 77.5892 27.954 77.8448C28.0213 78.8045 28.4492 83.1009 28.5714 84.0451C28.6778 84.8667 28.6436 85.0268 28.3616 85.0268C28.0863 85.0268 28.0244 84.7906 28.023 83.7351ZM18.8581 82.3896C18.771 82.2486 18.7563 82.0417 18.8255 81.9298C18.8947 81.8179 19.0295 81.3296 19.1251 80.8447L19.2989 79.9631L19.3012 80.7899C19.3036 81.8807 19.0685 82.73 18.8581 82.3896ZM15.4847 155.947L15.5951 153.598L14.2679 153.683C13.2588 153.747 12.8675 153.864 12.6354 154.171C12.1476 154.816 12.2615 155.046 13.1429 155.195C14.0516 155.348 14.7972 156.087 14.7972 156.835C14.7972 157.214 15.2442 158.442 15.3419 158.332C15.3597 158.311 15.424 157.238 15.4847 155.947ZM31.3316 156.952V155.918L30.3499 155.921C28.6691 155.926 28.407 156.067 28.4789 156.927L28.5414 157.675L29.7815 157.796C30.4636 157.862 31.0914 157.931 31.1766 157.951C31.2619 157.97 31.3316 157.52 31.3316 156.952ZM21.566 154.792L23.8911 154.782V153.8C23.8911 152.869 23.8617 152.817 23.3228 152.809C23.0101 152.804 22.4159 152.679 22.0023 152.531C21.1136 152.214 18.8276 152.438 17.7193 152.951C17.0562 153.258 17.0306 153.311 17.1584 154.111C17.3422 155.26 17.3598 155.273 18.358 155.024C18.8435 154.902 20.2871 154.798 21.566 154.792ZM27.525 154.427C27.4484 153.949 27.3533 153.524 27.3136 153.485C27.274 153.445 26.7055 153.357 26.0505 153.29C24.8705 153.168 24.8607 153.171 24.9925 153.664C25.0657 153.938 25.1268 154.316 25.1284 154.506C25.1315 154.906 25.966 155.258 26.9661 155.282L27.6642 155.298L27.525 154.427ZM23.97 150.098C24.0419 149.739 24.0578 149.402 24.0053 149.35C23.9529 149.297 23.0373 149.269 21.9709 149.287C20.9044 149.305 19.7977 149.231 19.5115 149.122C19.0299 148.939 19.0023 148.858 19.1399 148.029C19.2217 147.537 19.3543 146.98 19.4347 146.791C19.5154 146.602 19.4362 146.169 19.258 145.824C19.0502 145.422 18.9821 144.966 19.0668 144.542C19.2506 143.623 20.1696 143.26 21.88 143.429C24.0055 143.64 24.2948 143.543 24.5585 142.533C24.7462 141.813 24.069 141.581 21.8243 141.594C20.1595 141.604 19.71 141.683 18.8695 142.113L17.8781 142.621L17.7996 145.911C17.7565 147.721 17.7675 149.397 17.8241 149.636C17.9081 149.991 18.1802 150.114 19.3073 150.31C20.8087 150.571 21.6722 150.667 22.9869 150.718C23.788 150.749 23.8473 150.712 23.97 150.098ZM23.2847 146.817C23.8421 146.519 23.7844 146.266 23.0747 145.899C22.144 145.418 21.8243 145.492 21.8243 146.187C21.8243 146.98 22.464 147.256 23.2847 146.817ZM37.9381 144.159C38.0842 143.717 38.1477 143.264 38.0793 143.153C37.9228 142.9 36.2919 143.308 36.2919 143.6C36.2919 143.83 37.3281 144.964 37.5376 144.964C37.6118 144.964 37.792 144.602 37.9381 144.159ZM1.48737 140.911C3.48644 139.584 3.68255 138.778 2.45791 136.925C2.03705 136.288 1.58419 135.656 1.45155 135.521C1.08384 135.146 0.33009 135.43 0.326457 135.946C0.324895 136.188 0.189323 136.759 0.0255154 137.214C-0.274338 138.046 -0.398215 140.723 -0.165017 141.33C0.0153588 141.8 0.228919 141.746 1.48737 140.911ZM7.70457 139.965C7.63856 139.8 7.58961 139.849 7.5797 140.09C7.57071 140.308 7.61962 140.43 7.68825 140.361C7.75691 140.292 7.76425 140.114 7.70457 139.965ZM39.7853 138.94C40.0779 138.1 40.0795 135.73 39.7876 135.549C39.6641 135.473 39.2688 135.689 38.9092 136.029C38.5496 136.369 38.0461 136.755 37.7904 136.886C37.5346 137.017 37.3253 137.252 37.3253 137.407C37.3253 137.696 39.1306 139.59 39.4059 139.59C39.4898 139.59 39.6605 139.297 39.7853 138.94ZM-0.0312333 128.997C1.14286 128.039 0.953224 125.531 -0.342772 124.878C-1.37461 124.357 -2.27207 124.116 -2.54538 124.285C-2.83011 124.461 -3.1206 129.277 -2.89959 130.158L-2.76191 130.707L-1.70179 130.101C-1.11873 129.768 -0.366981 129.271 -0.0312333 128.997ZM41.3997 128.963C41.424 128.943 41.4668 128.072 41.4947 127.027C41.5524 124.874 41.3703 124.459 40.6036 124.996C40.3414 125.179 39.9848 125.331 39.8112 125.333C39.6375 125.334 39.1721 125.621 38.7768 125.969C38.1815 126.494 38.0581 126.745 38.0581 127.43C38.0581 128.349 38.2986 128.575 39.7021 128.976C40.3745 129.167 41.1539 129.161 41.3997 128.963ZM-4.48242 120.02C-3.8474 119.868 -3.74695 119.381 -3.99 117.634C-4.12569 116.658 -4.13097 115.653 -4.00499 114.786C-3.8977 114.047 -3.86996 111.792 -3.9432 109.764C-4.02442 107.516 -3.97984 104.821 -3.82875 102.841C-3.61634 100.057 -3.24049 91.5691 -3.104 86.4736C-3.08119 85.621 -2.95819 84.4585 -2.83074 83.8901C-2.7033 83.3217 -2.58782 81.9731 -2.57413 80.8932C-2.54671 78.7338 -2.28062 75.1962 -1.92888 72.316C-1.80394 71.2929 -1.66288 69.8048 -1.61541 69.0091C-1.56792 68.2134 -1.47091 66.742 -1.39979 65.7393C-1.31286 64.5136 -1.34581 63.8408 -1.50041 63.6862C-1.62687 63.5598 -1.77611 63.5021 -1.83205 63.558C-1.88798 63.614 -2.03081 64.8168 -2.14943 66.2311C-2.26805 67.6453 -2.4988 69.593 -2.66219 70.5592C-3.02354 72.6959 -3.29837 74.8551 -3.60928 77.9997C-3.73853 79.307 -3.97123 81.1206 -4.12639 82.03C-4.28156 82.9394 -4.50653 85.0785 -4.62632 86.7836C-4.74611 88.4887 -4.92615 90.7674 -5.0264 91.8473C-5.12666 92.9272 -5.19978 94.0898 -5.1889 94.4308C-5.17804 94.7718 -5.2809 96.8645 -5.41752 99.0811C-5.76478 104.715 -6.11721 118.11 -5.95113 119.362C-5.82663 120.301 -5.77063 120.389 -5.37698 120.266C-5.13706 120.191 -4.73452 120.08 -4.48242 120.02ZM47.8019 116.907C47.748 116.14 47.5608 113.885 47.3858 111.895C47.2088 109.882 47.015 104.658 46.9488 100.115C46.8835 95.6244 46.7855 91.0206 46.7312 89.8838C46.5102 85.2579 46.1973 79.512 46.1347 78.9298C46.0981 78.5888 45.9181 77.0076 45.7349 75.4162C45.5516 73.8248 45.2958 71.3601 45.1663 69.9392C45.0369 68.5183 44.8506 66.7046 44.7524 65.9089C44.6541 65.1132 44.4798 63.2632 44.365 61.7978C44.1617 59.2032 44.0763 58.7791 43.8103 59.045C43.4159 59.4394 43.7923 68.6742 44.4102 73.7628C44.567 75.0546 44.6618 78.852 44.6629 83.8901C44.6652 95.3475 45.042 106.86 45.6012 112.575C45.7101 113.688 45.7992 115.229 45.7992 116.001V117.403L46.5743 117.834C47.8407 118.539 47.9128 118.485 47.8019 116.907ZM18.6543 83.7351C18.597 83.593 18.5501 83.7092 18.5501 83.9934C18.5501 84.2776 18.597 84.3939 18.6543 84.2518C18.7116 84.1097 18.7116 83.8772 18.6543 83.7351ZM17.8974 79.8598C17.8974 79.7462 17.8564 79.6532 17.8062 79.6532C17.7561 79.6532 17.6576 79.7462 17.5874 79.8598C17.5171 79.9735 17.5582 80.0665 17.6785 80.0665C17.7989 80.0665 17.8974 79.9735 17.8974 79.8598ZM19.4853 77.9609C19.4193 77.7961 19.3704 77.8451 19.3605 78.0858C19.3515 78.3037 19.4003 78.4258 19.469 78.3571C19.5377 78.2884 19.545 78.1102 19.4853 77.9609ZM36.0198 76.3075C35.9537 76.1426 35.9048 76.1916 35.8949 76.4324C35.8859 76.6503 35.9347 76.7723 36.0034 76.7037C36.0721 76.635 36.0794 76.4567 36.0198 76.3075ZM25.3777 74.7123C26.1447 74.5341 27.4918 73.3093 27.7291 72.5744C27.928 71.9582 28.3999 72.1705 29.21 73.2405C29.816 74.041 30.1021 74.2582 30.5031 74.2223C31.11 74.1679 31.2828 73.6172 30.911 72.9225C30.7709 72.6607 30.7065 72.2544 30.7679 72.0196C30.8293 71.7848 30.8069 71.5926 30.7181 71.5926C30.6292 71.5926 30.5536 71.3834 30.55 71.1276C30.5461 70.8718 30.435 70.1975 30.3023 69.6292C30.1696 69.0608 29.977 67.7943 29.8742 66.8148C29.6685 64.8557 29.1183 62.6546 28.1108 59.7602C27.7518 58.729 27.6274 58.6447 26.9777 58.9924C26.4552 59.272 26.4769 59.7766 27.0974 61.7742C27.3796 62.6829 27.6692 63.8687 27.7409 64.4093C27.8502 65.2331 27.8169 65.3922 27.5347 65.3922C27.3495 65.3922 27.198 65.2634 27.198 65.1058C27.198 64.9483 27.0591 64.553 26.8893 64.2274C26.7195 63.9018 26.5799 63.4934 26.5792 63.3197C26.5777 62.8816 25.9903 62.0853 25.669 62.0853C25.3376 62.0853 25.5285 63.4771 26.0158 64.6127C26.6196 66.0198 25.8131 65.6397 24.8213 64.0497C24.4314 63.4247 24.2695 61.1583 24.5112 59.7085C24.6102 59.1146 24.5848 59.0903 23.9092 59.1309C23.5213 59.1543 23.0563 59.238 22.8758 59.3171C22.6954 59.3962 22.4233 59.4864 22.2712 59.5174C22.1192 59.5485 21.8145 59.737 21.5942 59.9364C21.2367 60.26 21.2047 60.5049 21.2971 62.2165C21.3541 63.2712 21.3332 64.176 21.2508 64.2272C21.1684 64.2784 21.101 65.7938 21.101 67.5947C21.101 70.4287 21.1643 71.0694 21.5716 72.3571C22.2849 74.612 23.2469 75.2074 25.3777 74.7123ZM23.2938 73.5777C22.4121 73.089 22.0492 72.0071 22.3679 70.8176C22.5027 70.3146 22.8467 70.2175 23.2093 70.5801C23.3574 70.7282 23.3751 71.0232 23.26 71.4246C23.0263 72.2395 23.3972 72.8327 24.1403 72.8327C24.9463 72.8327 25.4168 71.7045 25.0453 70.6626C24.7734 69.8997 23.996 68.3898 23.8395 68.3202C23.7542 68.2823 23.6845 68.1166 23.6845 67.952C23.6845 67.7874 23.5449 67.5992 23.3744 67.5338C23.2039 67.4683 23.0644 67.3082 23.0644 67.1779C23.0644 67.0476 22.7414 66.4866 22.3465 65.9313C21.9517 65.376 21.6782 64.8415 21.7387 64.7435C21.8837 64.509 22.4444 64.5137 22.4444 64.7498C22.4444 64.851 22.8447 65.4788 23.334 66.1449C23.8233 66.811 24.4045 67.6816 24.6257 68.0794C24.8469 68.4773 25.0744 68.8493 25.1312 68.9061C25.7197 69.4946 26.1453 71.645 25.8815 72.6963C25.7506 73.2176 24.7561 73.8733 24.1177 73.8591C23.9363 73.8552 23.5655 73.7283 23.2938 73.5777ZM15.794 74.2109C15.8307 74.0215 15.6155 73.3317 15.3156 72.6779C13.8528 69.4885 13.7055 69.0293 13.6087 67.3557C13.4993 65.4661 13.8791 65.8039 14.0397 67.739C14.1107 68.5947 14.2742 69.2495 14.4524 69.3924C14.6148 69.5226 14.8054 69.8784 14.8761 70.1831C14.9467 70.4877 15.1439 70.8764 15.3142 71.0467C15.4845 71.2171 15.6239 71.4774 15.6239 71.6253C15.6239 72.0353 16.9322 73.8653 17.2257 73.8657C17.3678 73.8659 17.484 73.9646 17.484 74.085C17.484 74.2054 17.577 74.2464 17.6907 74.1761C17.8044 74.1059 17.8974 74.1309 17.8974 74.2317C17.8974 74.3326 18.2754 74.4078 18.7375 74.399C19.4423 74.3854 19.692 74.2543 20.2876 73.5849C21.1065 72.6646 21.1357 72.4719 20.6136 71.4294C20.4023 71.0076 20.1612 70.3835 20.0777 70.0425C19.8853 69.2571 19.9201 65.9671 20.1224 65.8158C20.3781 65.6246 20.4126 63.3963 20.1737 62.509C20.0486 62.0447 19.8214 61.672 19.6634 61.672C19.5068 61.672 19.3317 61.5557 19.2744 61.4136C19.217 61.2715 19.1628 61.844 19.1538 62.6857C19.138 64.164 19.1243 64.2043 18.7533 63.8685C18.5419 63.6772 18.2061 62.9188 18.0069 62.183C17.8078 61.4472 17.5301 60.8453 17.3898 60.8453C16.9424 60.8453 16.4746 61.5525 16.332 62.4444C16.223 63.1259 16.2867 63.467 16.6322 64.0526C17.1453 64.9223 17.156 64.9789 16.8066 64.9789C15.9778 64.9789 15.094 62.8015 15.3893 61.4871C15.6178 60.4704 15.2594 60.3821 14.9341 61.3749C14.8247 61.7088 14.6562 62.0339 14.5596 62.0975C14.4631 62.161 14.3431 62.7057 14.293 63.3079C14.1471 65.0643 13.9178 64.9648 13.658 63.0322C13.504 61.8863 13.1576 62.0822 13.1396 63.3254C13.1341 63.7233 13.0053 64.8645 12.8539 65.8615C12.5826 67.6485 12.6521 68.7066 13.1414 70.2384C13.2522 70.5853 13.5385 71.4832 13.7776 72.2337C14.3899 74.1557 15.5787 75.3214 15.794 74.2109ZM20.7909 74.2795C20.7909 74.1658 20.7499 74.0728 20.6998 74.0728C20.6496 74.0728 20.5511 74.1658 20.4809 74.2795C20.4107 74.3931 20.4517 74.4862 20.572 74.4862C20.6924 74.4862 20.7909 74.3931 20.7909 74.2795ZM10.3134 73.7111C10.2416 73.5122 10.0286 73.1169 9.83993 72.8327C8.79087 71.2525 8.59377 69.8356 9.11211 67.6006C9.52736 65.81 9.86707 62.2401 9.64352 62.0163C9.28421 61.6564 8.80346 62.7917 8.80346 64.0001C8.80346 64.9171 8.70527 65.3082 8.3901 65.6465C8.16276 65.8905 7.97673 66.2122 7.97673 66.3613C7.97673 66.7239 7.60611 66.7046 7.22362 66.322C7.01623 66.1147 6.92419 65.6522 6.94598 64.927C7.00589 62.9324 6.93895 61.7779 6.74473 61.4713C6.41291 60.9466 6.26825 61.3931 6.09102 63.4891C5.9965 64.6069 5.88694 65.7326 5.84754 65.9907C5.70257 66.9407 6.22485 68.2686 7.1078 69.195C8.0233 70.1556 8.22082 70.9261 7.66899 71.384C7.28927 71.6992 6.05455 71.501 5.60656 71.053C5.32213 70.7686 5.2899 70.8018 5.2899 71.3794C5.2899 72.0446 5.93849 73.5249 6.3382 73.772C6.46332 73.8493 6.86436 73.6231 7.22939 73.2693C8.08111 72.4438 8.42974 72.459 9.03517 73.348C9.56729 74.1293 10.5668 74.4133 10.3134 73.7111ZM2.39637 72.4341C2.39637 72.3286 2.51997 72.1186 2.67104 71.9675C3.23973 71.3988 3.80133 68.8343 3.92994 66.2189C4.07046 63.3612 3.92525 63.3106 3.05107 65.9136C2.38154 67.9078 1.75589 72.626 2.16098 72.626C2.29045 72.626 2.39637 72.5397 2.39637 72.4341ZM11.9183 71.7476C12.1894 70.7436 12.0502 68.889 11.5896 67.3695C11.3587 66.6077 11.3148 65.863 11.416 64.4243C11.5307 62.7921 11.5042 62.4987 11.242 62.4987C10.9992 62.4987 10.894 62.9542 10.7528 64.6172C10.4457 68.2354 10.5201 70.5321 10.9806 71.6435C11.2041 72.183 11.4531 72.6248 11.534 72.6253C11.6149 72.6257 11.7878 72.2307 11.9183 71.7476ZM33.1063 71.6443C33.6099 71.1043 34.0707 70.5098 34.1304 70.3231C34.1901 70.1364 34.52 69.8672 34.8635 69.7249C35.5629 69.4352 35.8794 69.6094 35.9324 70.3129C35.9504 70.5523 36.0061 70.7073 36.056 70.6574C36.1059 70.6074 36.3566 70.8108 36.6131 71.1092C37.2721 71.8762 37.732 71.6383 37.7635 70.514C37.8104 68.8437 37.7142 67.4216 37.5199 66.9104C37.4129 66.629 37.3253 66.1311 37.3253 65.8039C37.3253 65.1297 36.2985 61.9548 35.7106 60.8114C35.2222 59.8615 33.9538 58.3651 33.6369 58.3651C33.3371 58.3651 33.3304 58.9881 33.6221 59.7467C33.7451 60.0667 33.9265 60.7936 34.0253 61.362C34.124 61.9303 34.4411 63.5114 34.73 64.8755C35.0189 66.2396 35.256 67.6176 35.2569 67.9378C35.2584 68.4474 35.1898 68.5117 34.7068 68.4545C34.1687 68.3907 34.1531 68.3485 34.0757 66.7541C34.032 65.8548 33.8084 64.3667 33.5787 63.4472C33.3491 62.5277 33.0796 61.4498 32.9799 61.0519C32.7614 60.1801 32.7783 60.2652 32.7783 60.042C32.7783 59.9412 32.5226 59.8058 32.21 59.741C30.394 59.3645 29.0068 59.1742 28.8949 59.2861C28.8245 59.3566 28.8863 59.713 29.0324 60.0781C29.4686 61.1681 30.3157 64.5726 30.5089 66.0123C31.0992 70.4096 31.602 72.626 32.0093 72.626C32.1091 72.626 32.6027 72.1842 33.1063 71.6443ZM1.86491 63.8274C2.04354 63.6487 2.1897 63.4229 2.1897 63.3254C2.1897 63.228 2.30596 63.0254 2.44805 62.8752C2.68632 62.6233 3.24077 61.6637 4.03892 60.122C4.21542 59.7811 4.40649 59.4556 4.46351 59.3987C4.52053 59.3417 4.69629 59.0445 4.85409 58.7381C5.10616 58.2486 5.09587 58.0858 4.7694 57.3978C3.94321 55.6568 3.82321 54.4992 4.14362 51.3616C4.30729 49.7588 4.28479 49.563 3.84453 48.757C3.2842 47.7313 2.97823 47.5108 1.85124 47.3204C1.13563 47.1995 0.919969 47.256 0.387402 47.7041C-0.452823 48.4111 -0.606022 49.2697 -0.0577539 50.1989C0.177725 50.5981 0.454221 50.9246 0.55667 50.9246C0.659118 50.9246 0.742936 51.0217 0.742936 51.1403C0.742936 51.2589 0.974778 51.606 1.25814 51.9116C2.01567 52.7286 2.75846 54.4317 2.81541 55.4823C2.92668 57.5349 2.82088 58.5718 2.49972 58.5718C2.12706 58.5718 2.11897 58.4156 2.42808 57.1879C2.80647 55.6852 2.11379 53.4979 0.800245 52.0476C0.484518 51.699 -0.331844 50.5829 -1.01389 49.5674C-1.69593 48.5519 -2.30304 47.6746 -2.36301 47.6177C-2.5953 47.3976 -3.18685 45.8 -3.51093 44.5175C-3.75459 43.5533 -3.8178 42.6966 -3.73489 41.4823C-3.57052 39.0749 -2.86153 37.8042 -1.42724 37.3464C-0.972695 37.2013 -0.789739 37.0011 -0.7418 36.5961C-0.686025 36.1251 -0.753839 36.0436 -1.20131 36.0436C-1.78272 36.0436 -3.59738 36.8575 -3.59738 37.1182C-3.59738 37.2092 -3.73689 37.2837 -3.90741 37.2837C-4.07792 37.2837 -4.21742 37.3767 -4.21742 37.4904C-4.21742 37.6041 -4.35693 37.6971 -4.52744 37.6971C-5.06906 37.6971 -4.86517 37.4059 -3.85533 36.7373C-2.18928 35.6342 -1.06676 35.3191 0.357759 35.5547C1.2973 35.71 1.63568 35.6964 1.80172 35.4963C1.92098 35.3526 1.95151 35.1265 1.86953 34.9939C1.68358 34.693 -2.60904 34.8311 -3.0152 35.151C-3.1649 35.269 -3.60099 35.425 -3.9843 35.4977C-4.56301 35.6076 -4.64092 35.5815 -4.4437 35.3438C-4.12069 34.9546 -1.9945 34.4504 0.0588901 34.276C1.14491 34.1838 1.78865 34.036 1.85477 33.8637C2.07275 33.2957 -0.449863 32.9066 -1.57566 33.3346C-2.33847 33.6246 -3.90742 33.6983 -3.90742 33.4441C-3.90742 33.2242 -3.10977 32.1001 -2.62285 31.6338C-2.15639 31.1872 -1.75533 30.8766 -1.64503 30.8766C-1.40565 30.8766 -0.703884 30.1489 -0.703884 29.9006C-0.703884 29.5377 -1.43246 29.5679 -1.81109 29.9466C-1.9816 30.1171 -2.2016 30.2566 -2.29997 30.2566C-2.55257 30.2566 -4.01076 31.8264 -4.01076 32.0983C-4.01076 32.2221 -4.10376 32.3234 -4.21744 32.3234C-4.33112 32.3234 -4.42413 32.4551 -4.42413 32.6162C-4.42413 32.7772 -4.49473 32.94 -4.58097 32.9779C-4.72343 33.0404 -5.13458 33.7736 -6.35809 36.147C-7.0971 37.5805 -7.22502 38.4774 -7.08027 41.2106C-7.00504 42.6316 -6.93465 44.9452 -6.92387 46.3521C-6.91036 48.1162 -6.7729 49.4952 -6.48091 50.7957C-5.57885 54.8134 -3.95006 59.0557 -2.64765 60.7798C-2.37429 61.1417 -2.15064 61.4889 -2.15064 61.5514C-2.15064 61.7875 -0.169322 63.791 0.226192 63.9548C0.884204 64.2272 1.51399 64.1783 1.86491 63.8274ZM12.627 63.9455C12.6973 63.8318 12.6563 63.7388 12.5359 63.7388C12.4155 63.7388 12.317 63.8318 12.317 63.9455C12.317 64.0591 12.358 64.1521 12.4082 64.1521C12.4583 64.1521 12.5568 64.0591 12.627 63.9455ZM39.8868 62.8174C40.2685 62.4244 40.6537 62.1686 40.7428 62.2491C40.8319 62.3295 40.8531 62.2499 40.7899 62.0726C40.7267 61.8951 40.8493 61.523 41.0624 61.2459C41.2754 60.9687 41.4526 60.6489 41.4561 60.5352C41.46 60.4216 41.771 60.003 42.1482 59.6052C42.5253 59.2073 42.9662 58.6314 43.1281 58.3253C43.7933 57.0672 44.3185 55.9526 44.5213 55.3682C44.6397 55.0272 44.9757 54.1067 45.2679 53.3228C45.5601 52.5388 45.7992 51.684 45.7992 51.4232C45.7992 51.1624 45.8922 50.8915 46.0059 50.8213C46.1195 50.751 46.2125 50.472 46.2125 50.2012C46.2125 49.9305 46.2933 49.659 46.392 49.598C46.4907 49.537 46.634 49.0151 46.7106 48.4381C46.7871 47.8612 46.9983 47.0453 47.1798 46.625C47.3614 46.2048 47.5817 45.6749 47.6693 45.4476C47.757 45.2202 48.011 44.6157 48.2337 44.1042C48.9211 42.5252 49.1728 41.8063 49.2367 41.2393C49.3521 40.2157 49.8633 38.008 50.0808 37.5937C50.8256 36.1755 50.8569 36.0293 50.5377 35.4605C50.3677 35.1576 50.069 34.8791 49.874 34.8415C49.5796 34.7848 49.5178 34.9423 49.5101 35.7701C49.5046 36.3184 49.373 37.046 49.2169 37.3871C48.9496 37.9708 48.932 37.9012 48.9162 36.1958C48.907 35.1997 48.8147 34.2231 48.7111 34.0257C48.6075 33.8283 48.263 33.1244 47.9454 32.4616C47.3506 31.22 46.3404 30.0499 45.8633 30.0499C45.4777 30.0499 45.5229 30.2133 46.1123 30.9501C46.849 31.8712 46.8962 31.9432 47.2859 32.7424C47.6272 33.4424 48.3223 37.8536 48.1399 38.1621C47.8617 38.6327 47.704 38.1138 47.6062 36.4053C47.4729 34.0768 46.9733 32.842 45.637 31.5387C44.5015 30.4312 44.3949 30.7516 45.2726 32.6334C46.0615 34.3245 46.2803 34.9667 46.3613 35.8287C46.4098 36.3447 46.5415 36.9578 46.654 37.1911C46.9058 37.713 46.8063 39.5453 46.5226 39.612C46.4089 39.6387 46.2651 39.149 46.203 38.5238C46.0571 37.0538 45.4211 35.7321 44.3677 34.7099C43.6082 33.973 43.5257 33.9376 43.5257 34.3493C43.5257 34.6002 43.764 35.2934 44.0553 35.8896C45.1151 38.0593 45.1853 38.4334 44.7151 39.4066C44.3422 40.1783 44.3099 40.5209 44.4281 42.4486C44.5461 44.3733 44.7451 45.6799 45.0974 46.8427C45.2861 47.4655 44.5961 47.2554 44.2491 46.5843C44.0727 46.2433 43.8526 45.9643 43.7599 45.9643C43.6672 45.9643 43.3422 46.4222 43.0375 46.9819C42.7329 47.5416 42.4159 48.0299 42.333 48.067C42.1418 48.1525 41.0455 49.7609 41.0455 49.9558C41.0455 50.0359 40.7665 50.4866 40.4255 50.9574C40.0845 51.4282 39.8055 51.9389 39.8055 52.0924C39.8055 52.2458 39.7187 52.3714 39.6127 52.3714C39.5067 52.3714 39.355 52.5806 39.2756 52.8364C39.1962 53.0922 38.9741 53.5339 38.7822 53.8181C38.3675 54.4321 37.9453 56.2126 37.9453 57.3475C37.9453 57.8179 37.8461 58.1584 37.7091 58.1584C37.5417 58.1584 37.5086 57.6917 37.5955 56.5566C37.7344 54.7427 38.0277 54.0498 40.111 50.6141C40.8523 49.3916 41.4589 48.3665 41.4589 48.3361C41.4589 48.187 39.7301 47.4504 39.525 47.5121C39.3951 47.5512 39.0226 47.6418 38.6973 47.7135C37.4283 47.9932 35.8759 50.357 35.774 52.1647C35.7415 52.7419 35.7787 52.9379 35.8728 52.6814L36.0241 52.268L36.1547 52.6814C36.2264 52.9087 36.2661 54.3503 36.2428 55.8849C36.2084 58.1427 36.2651 58.7934 36.5401 59.2952C36.727 59.6362 37.0777 60.3337 37.3195 60.8453C37.8309 61.9274 38.1535 62.4735 38.5137 62.8664C38.6558 63.0214 38.772 63.2346 38.772 63.3402C38.772 63.7217 39.2065 63.5179 39.8868 62.8174ZM35.8131 59.3597C35.7471 59.1949 35.6981 59.2438 35.6882 59.4846C35.6792 59.7025 35.7281 59.8246 35.7968 59.7559C35.8654 59.6872 35.8727 59.5089 35.8131 59.3597ZM28.6448 59.514C28.6448 59.4639 28.5518 59.3654 28.4381 59.2952C28.3244 59.2249 28.2314 59.2659 28.2314 59.3863C28.2314 59.5067 28.3244 59.6052 28.4381 59.6052C28.5518 59.6052 28.6448 59.5642 28.6448 59.514ZM21.7004 54.7873C21.6891 52.7729 21.6197 51.0645 21.5462 50.9909C21.4726 50.9173 20.6215 50.8175 19.6549 50.7689L17.8974 50.6806V52.2754C17.8974 53.6185 18.0126 54.1581 18.6272 55.6943C19.1147 56.9127 19.3143 57.6885 19.2285 58.0306C19.1129 58.4913 19.1693 58.5494 19.7904 58.609C20.1702 58.6454 20.7599 58.6244 21.1009 58.5626L21.721 58.45L21.7004 54.7873ZM13.7153 57.7451C14.0149 57.7451 14.8009 57.5845 15.4619 57.3883C16.4993 57.0803 16.6871 56.946 16.8346 56.4065C17.031 55.6885 16.8941 51.1094 16.6691 50.8659C16.4717 50.6525 14.3683 50.3235 14.0303 50.4532C13.8853 50.5088 13.806 50.7539 13.8539 50.9978C14.1889 52.7025 14.4203 54.6772 14.2992 54.7983C14.0674 55.0302 13.7704 54.393 13.767 53.6565C13.7654 53.2834 13.6243 52.6442 13.4538 52.2362C13.2833 51.8281 13.1437 51.273 13.1437 51.0027C13.1437 50.2621 12.6423 50.4128 12.3419 51.2437C12.024 52.1228 12.0027 54.2643 12.3063 54.8313C12.6002 55.3807 12.5806 55.8854 12.2654 55.8829C11.9548 55.8806 11.2993 54.108 11.0881 52.6995C10.9828 51.9978 10.782 51.5594 10.438 51.2804L9.94025 50.8766L9.77983 51.9857C9.35799 54.9022 9.53985 55.7621 10.8703 57.1427C11.6361 57.9372 12.1158 58.1461 12.6813 57.9311C12.9505 57.8288 13.4158 57.7451 13.7153 57.7451ZM31.4969 57.9104C31.6334 57.774 31.745 57.5016 31.745 57.3051C31.745 57.1086 32.0805 56.5924 32.4906 56.158C33.7804 54.7917 34.1668 53.7672 34.211 51.5963C34.255 49.4381 34.2695 49.4522 32.4683 49.8998C30.6529 50.3509 26.1644 50.9228 24.4317 50.9237L22.5955 50.9244L22.6954 52.3204C22.7638 53.2772 22.9789 54.0914 23.3788 54.9082C24.2488 56.6849 24.4147 56.7358 24.8176 55.3497C25.1875 54.0774 25.6743 53.1979 26.0087 53.1979C26.2155 53.1979 26.1891 53.4466 25.7674 55.4714C25.6224 56.1676 25.6407 56.4702 25.8401 56.675C26.0597 56.9006 26.2336 56.8 26.8318 56.101C27.3689 55.4736 27.6219 54.9196 27.8061 53.9674C28.0594 52.658 28.4582 51.71 28.8042 51.5947C29.0267 51.5205 29.3576 54.3554 29.2688 55.5747C29.1136 57.7072 29.1324 57.8174 29.6782 57.9713C30.5 58.2031 31.2286 58.1788 31.4969 57.9104ZM6.29354 53.3586C6.33463 52.3052 6.26253 51.1234 6.13016 50.6816L5.8932 49.8907L5.44869 50.3048C5.06208 50.665 5.00494 50.941 5.00999 52.4236C5.0139 53.5826 5.13034 54.3849 5.37367 54.9304C5.90637 56.1246 6.20558 55.6133 6.29354 53.3586ZM8.26742 54.5045C8.6205 53.4682 8.73524 49.8912 8.41541 49.8912C7.59039 49.8912 6.81662 53.741 7.35632 55.1605C7.62433 55.8655 7.86199 55.6943 8.26742 54.5045ZM35.8131 50.2658C35.7471 50.1009 35.6981 50.1499 35.6882 50.3907C35.6792 50.6086 35.7281 50.7306 35.7968 50.662C35.8654 50.5933 35.8727 50.415 35.8131 50.2658ZM20.8943 49.7241C21.3866 49.6959 21.4504 49.7344 21.2043 49.9112C20.9629 50.0844 21.0087 50.1036 21.411 49.9975C21.6951 49.9226 22.0207 49.8661 22.1343 49.872C22.248 49.8783 22.8525 49.9145 23.4778 49.9533C24.103 49.9922 24.661 49.9596 24.7178 49.8815C24.7747 49.8031 25.5784 49.6869 26.504 49.6232C28.7355 49.4697 32.7289 48.7662 35.2585 48.0812C36.2721 47.8067 38.7061 46.6789 38.9779 46.3578C39.0352 46.2901 39.3228 46.1758 39.6169 46.1039C39.911 46.0321 40.3993 45.7785 40.702 45.5404C41.1744 45.1688 41.2522 44.9524 41.2522 44.0104C41.2522 42.8816 42.0541 40.3681 42.6122 39.7476C42.7736 39.5681 42.9057 39.3527 42.9057 39.2688C42.9057 39.1849 43.1348 38.8159 43.4148 38.4487C43.9085 37.8015 43.9148 37.7508 43.6226 36.7799C43.4569 36.2292 43.2134 35.6486 43.0814 35.4897C42.7121 35.0446 42.7463 33.4279 43.1332 33.0408C43.4365 32.7374 43.5366 32.7797 44.3384 33.55C44.8194 34.0121 45.2506 34.3902 45.2967 34.3902C45.4138 34.3902 44.3693 32.0525 44.157 31.8393C44.0616 31.7436 43.0203 31.9896 41.8429 32.3861C40.6654 32.7826 39.2603 33.1689 38.7204 33.2446C38.1804 33.3203 37.7386 33.4605 37.7386 33.5562C37.7386 33.8078 35.6882 33.9131 35.5847 33.6668C35.5369 33.5531 35.4905 33.6229 35.4815 33.8218C35.4703 34.0696 35.2955 34.1835 34.9264 34.1835C34.6301 34.1835 33.5838 34.3177 32.6013 34.4816C27.8755 35.2702 20.5527 35.6114 16.9624 35.2102C15.7147 35.0708 14.4613 34.9615 14.1771 34.9674C13.5516 34.9804 11.1226 34.4945 9.0101 33.9339C8.15755 33.7077 7.08798 33.4251 6.63328 33.306C4.39736 32.7201 2.4075 32.0661 2.05974 31.8027C1.84701 31.6416 1.51773 31.5069 1.32801 31.5032C1.1383 31.4993 0.691907 31.3339 0.336029 31.135C-0.287753 30.7863 -0.321806 30.7877 -0.610793 31.1745C-1.29955 32.0963 -0.949689 32.3786 1.22788 32.6579C2.29155 32.7943 2.90806 33.2131 2.98086 33.8485C3.0182 34.1742 2.94845 34.5408 2.82586 34.6634C2.7033 34.786 2.60301 35.1391 2.60301 35.4481C2.60301 36.5137 2.43572 36.6637 1.24685 36.6637C0.144022 36.6637 0.141283 36.6653 0.00371429 37.3986C-0.140018 38.1648 -0.0984664 38.5095 0.425734 40.9006C0.600174 41.6962 0.7429 42.8288 0.7429 43.4173C0.7429 44.6287 0.425949 44.3618 4.04977 46.2019C5.12968 46.7502 6.12983 47.2001 6.27234 47.2016C6.41484 47.2032 6.8785 47.3904 7.30268 47.6177C7.72686 47.8451 8.26595 48.0311 8.50067 48.0311C8.73539 48.0311 9.01579 48.1143 9.12378 48.216C9.29587 48.3781 9.87616 48.5377 11.8891 48.9766C12.1654 49.0368 12.4516 49.1233 12.5252 49.1688C12.5987 49.2142 13.9074 49.3564 15.4332 49.4847C16.959 49.613 18.5126 49.7444 18.8856 49.7767C19.2586 49.8089 19.622 49.8936 19.6933 49.9648C19.7645 50.036 19.9244 50.019 20.0485 49.9269C20.1726 49.8348 20.5532 49.7435 20.8943 49.7241ZM-0.785759 44.2283C-0.272346 42.2392 -0.220643 41.4397 -0.504459 39.8786C-0.872172 37.8559 -0.983824 37.6721 -1.69406 37.9197C-3.71675 38.6248 -3.90365 44.9455 -1.94799 46.5074C-1.58605 46.7964 -1.30776 46.2508 -0.785759 44.2283ZM43.8107 43.5875C43.5392 42.6911 43.5001 41.6622 43.6967 40.5835C43.8099 39.9622 43.874 39.4248 43.839 39.3893C43.601 39.1473 42.079 43.3311 42.079 44.2275C42.079 44.5156 42.183 44.9458 42.3102 45.1835C42.5334 45.6005 42.5657 45.5874 43.2387 44.8082C43.726 44.244 43.8982 43.8763 43.8107 43.5875ZM24.9484 34.3295C25.132 34.1897 25.5844 33.4767 25.9537 32.7452L26.6251 31.415L26.0033 30.1641C24.9289 28.0028 24.5286 26.8843 24.3906 25.658C24.2634 24.5273 23.9252 24.1194 23.5793 24.6792C23.3102 25.1145 21.8072 25.7085 20.4365 25.9212C19.2512 26.1051 18.9128 26.0889 18.4042 25.8237C18.0686 25.6487 17.6745 25.5049 17.5284 25.5042C17.3823 25.5036 17.035 25.3537 16.7565 25.1712C16.2686 24.8515 16.2426 24.8595 16.0404 25.3913C15.925 25.6949 15.8306 26.2213 15.8306 26.5611C15.8306 27.2295 15.2017 28.761 14.6334 29.4767C14.2558 29.9523 13.3527 30.8036 12.5438 31.4464L12.0471 31.841L13.1613 32.9606C13.7741 33.5764 14.3425 34.0582 14.4245 34.0314C14.5064 34.0045 15.112 34.113 15.7704 34.2725C17.3547 34.6563 24.4612 34.7004 24.9484 34.3295ZM19.7575 33.6989C19.7575 33.546 19.9511 33.2457 20.1876 33.0316C20.4241 32.8176 20.8578 32.1521 21.1512 31.5528C21.7267 30.3776 21.9372 30.2307 22.1204 30.8766C22.1849 31.104 22.2897 31.4737 22.3533 31.6983C22.4827 32.1551 21.4157 33.3568 20.8806 33.3568C20.7105 33.3568 20.5177 33.4963 20.4523 33.6668C20.3045 34.0521 19.7575 34.0773 19.7575 33.6989ZM18.8528 32.2925C18.412 31.764 17.8307 31.2135 17.561 31.0692C17.2913 30.9249 17.0707 30.6365 17.0707 30.4283C17.0707 30.1379 17.2295 30.0499 17.7535 30.0499C18.2573 30.0499 18.613 30.2322 19.1102 30.7451C19.6958 31.3493 19.7755 31.5591 19.7191 32.3469L19.6542 33.2535L18.8528 32.2925ZM32.0033 34.0466C31.8612 33.9893 31.6287 33.9893 31.4866 34.0466C31.3445 34.104 31.4608 34.1509 31.745 34.1509C32.0292 34.1509 32.1454 34.1039 32.0033 34.0466ZM29.3207 32.9421C29.6092 32.2076 29.6111 32.0791 29.3373 31.8054C28.7581 31.2261 28.1682 31.4387 27.4564 32.4831C27.087 33.0252 26.7847 33.5365 26.7847 33.6194C26.7847 33.7023 27.2821 33.7702 27.8901 33.7702C28.9881 33.7702 28.9976 33.7647 29.3207 32.9421ZM32.9416 33.374C34.0747 33.1549 34.1722 33.0425 33.6905 32.5103C33.3632 32.1486 33.1438 32.0954 32.4 32.1974C31.8244 32.2763 31.3688 32.487 31.1264 32.7862C30.5241 33.5301 31.126 33.7251 32.9416 33.374ZM10.2502 32.4267C9.23265 31.3769 7.97673 31.447 7.97673 32.5536C7.97673 32.869 8.82649 33.1229 9.92907 33.137L10.9513 33.1501L10.2502 32.4267ZM4.95547 31.257C5.02734 30.8978 5.04094 30.5588 4.98579 30.5036C4.85208 30.3699 2.08242 30.1201 1.79517 30.2159C1.17051 30.4241 2.08189 31.0394 3.94649 31.6683C4.83077 31.9665 4.81204 31.9741 4.95547 31.257ZM0.834465 29.3036C0.658432 27.8946 0.779784 27.784 2.50545 27.7796C3.83734 27.7765 4.1114 27.9437 4.61376 29.0682C4.88762 29.6812 5.58548 29.8247 6.33688 29.4226C7.34328 28.884 6.14566 27.2791 4.55989 27.0413C3.07092 26.818 1.40095 27.0945 0.392932 27.7313C-0.0962027 28.0403 -0.49658 28.3602 -0.496783 28.4421C-0.497213 28.613 0.782286 30.4633 0.900928 30.4633C0.944047 30.4633 0.914142 29.9414 0.834465 29.3036ZM3.76191 29.3098C3.69293 29.13 3.63646 28.8975 3.63646 28.7931C3.63646 28.6887 3.17142 28.6033 2.60305 28.6033C2.03467 28.6033 1.56966 28.6849 1.56966 28.7847C1.56966 29.0903 2.05484 29.3888 2.70639 29.4841C3.85945 29.6527 3.89148 29.6474 3.76191 29.3098ZM22.2317 24.6507C22.6285 24.438 23.2339 23.9982 23.5771 23.6734C24.1292 23.1508 24.3746 22.7734 25.2766 21.0595C25.819 20.0288 26.1646 19.0354 26.1646 18.507C26.1646 18.1096 26.3881 17.7342 26.888 17.2916C27.4569 16.7879 27.6114 16.4955 27.6114 15.9223C27.6114 15.5215 27.5087 15.13 27.3832 15.0525C27.0099 14.8218 26.3807 13.256 26.3758 12.5458C26.3688 11.5613 25.642 10.5109 24.4668 9.78778C23.8913 9.43363 22.8651 8.55112 22.1865 7.82663L20.9527 6.50937L20.3034 6.96398C19.9463 7.21401 19.6027 7.48746 19.5398 7.57163C19.477 7.6558 18.8492 8.00386 18.1448 8.34508C17.3937 8.70888 16.864 9.09781 16.864 9.28539C16.864 9.5952 15.2925 11.2422 14.9969 11.2422C14.9165 11.2422 14.7885 11.87 14.7127 12.6373C14.5905 13.8731 14.5133 14.0612 14.0369 14.285C13.7411 14.4239 13.4202 14.4888 13.3238 14.4292C13.2274 14.3697 13.2039 14.4652 13.2716 14.6417C13.3393 14.8181 13.2965 14.9624 13.1765 14.9624C13.0565 14.9624 12.7154 15.1876 12.4185 15.4628L11.8786 15.9631L12.3323 16.8579C12.5818 17.35 12.8456 17.7991 12.9185 17.8559C13.2415 18.1077 14.3838 19.6933 14.3838 19.8899C14.3838 20.2069 15.3367 21.9483 15.9505 22.753C16.4441 23.4001 17.1039 24.0773 17.7324 24.5817C18.6649 25.33 20.9003 25.3642 22.2317 24.6507ZM24.859 24.6376C24.793 24.4728 24.7441 24.5217 24.7342 24.7625C24.7252 24.9804 24.774 25.1024 24.8427 25.0338C24.9114 24.9651 24.9187 24.7868 24.859 24.6376ZM26.9514 18.3672C26.8877 18.3035 26.7722 18.4182 26.6946 18.6221C26.5824 18.9166 26.6062 18.9404 26.8103 18.7378C26.9515 18.5976 27.015 18.4308 26.9514 18.3672ZM28.6502 14.084C28.5635 13.7146 28.3346 12.8792 28.1417 12.2275C27.9487 11.5759 27.82 10.8706 27.8556 10.6602C27.9249 10.2513 26.7882 9.01402 25.5446 8.14479C25.1467 7.8667 24.4179 7.26402 23.9251 6.8055C22.9488 5.8972 22.4662 5.57111 22.3178 5.71949C22.1793 5.85797 22.6853 6.90189 22.8909 6.90189C22.9863 6.90189 23.0644 6.99882 23.0644 7.11729C23.0644 7.23576 23.1588 7.44502 23.2743 7.58232C24.0789 8.53922 24.5187 8.96868 24.6942 8.96868C24.8057 8.96868 25.3539 9.41378 25.9124 9.95778C26.8451 10.8662 26.9394 11.0486 27.069 12.1937C27.1738 13.1208 27.3543 13.6087 27.7724 14.096C28.5162 14.9629 28.8555 14.9583 28.6502 14.084ZM13.6369 13.0194C13.8204 12.6328 13.9705 12.0024 13.9705 11.6186C13.9705 11.1855 14.1214 10.7914 14.3683 10.58C14.5871 10.3927 15.247 9.62751 15.8347 8.87966C16.5221 8.005 17.099 7.47727 17.452 7.40033C18.2813 7.21956 19.3442 6.63261 19.3442 6.35541C19.3442 6.22022 19.4604 6.06029 19.6025 6.00001C19.7446 5.93973 19.4603 5.94472 18.9706 6.01109C17.5906 6.19817 16.7675 6.72944 14.9952 8.57713C13.2964 10.3482 13.0507 10.8158 12.8622 12.6373C12.7276 13.9377 13.1113 14.127 13.6369 13.0194ZM11.8299 3.20497L11.8594 2.40391L10.3989 2.48858C9.36093 2.54875 8.88989 2.49682 8.77075 2.30907C8.63965 2.10248 8.60242 2.10121 8.59994 2.30322C8.5976 2.49649 7.91993 2.56156 5.90994 2.56156C4.43217 2.56156 3.22619 2.63132 3.22997 2.71658C3.23387 2.80183 3.40965 3.07866 3.62085 3.33176C3.98764 3.77129 4.17037 3.79469 7.69591 3.85354C9.72599 3.88742 11.48 3.93559 11.5936 3.96057C11.7073 3.98555 11.8136 3.64555 11.8299 3.20497ZM39.3685 3.18012L40.0682 2.5616H34.5343C29.5152 2.5616 28.9726 2.52795 28.7023 2.19991C28.419 1.85604 28.41 1.85626 28.5198 2.20444C28.6291 2.55102 28.2387 2.56767 21.2512 2.51446C16.6342 2.4793 13.8102 2.38077 13.7153 2.25154C13.6219 2.12451 13.5622 2.14692 13.5603 2.3097C13.5587 2.45536 13.6966 2.62808 13.8671 2.69351C14.2946 2.85753 14.2577 3.54429 13.8155 3.6561C13.6166 3.7064 19.1272 3.75903 26.0613 3.77308L38.6688 3.79861L39.3685 3.18012ZM11.5263 1.93675C11.5735 1.79523 16.7083 1.72041 27.0446 1.71062C39.7186 1.6986 42.4923 1.64683 42.4923 1.42231C42.4923 1.27179 42.5529 0.990799 42.6269 0.797872C42.7344 0.51786 42.6766 0.474042 42.3407 0.58067C42.1092 0.654137 41.5366 0.628132 41.0681 0.522879C40.5685 0.410624 40.1692 0.407984 40.1021 0.516472C39.9288 0.796938 39.1859 0.737686 39.1823 0.443108C39.1807 0.283111 39.1213 0.263442 39.0273 0.391437C38.8096 0.687659 34.0531 0.780856 33.7095 0.495631C33.5539 0.366503 33.3853 0.348785 33.3198 0.454682C33.2564 0.557344 32.4808 0.604685 31.5963 0.559883C30.7119 0.515084 29.7133 0.479856 29.3773 0.481613C29.0413 0.483331 28.6939 0.370795 28.6054 0.231442C28.5035 0.0710152 28.4432 0.0614974 28.4412 0.205487C28.4397 0.340918 27.9574 0.444111 27.2497 0.460617C25.5541 0.500159 5.3983 0.697665 2.84767 0.699728L0.715473 0.701443L0.780863 1.26982L0.846241 1.83819L6.08314 1.77677C9.69358 1.73443 11.2785 1.78255 11.1863 1.93178C11.1127 2.05081 11.1432 2.1482 11.2542 2.1482C11.3651 2.1482 11.4876 2.05307 11.5263 1.93675ZM10.8703 -0.125242C10.8703 -0.238916 10.7075 -0.330501 10.5086 -0.328761C10.1995 -0.326027 10.192 -0.296465 10.4569 -0.125242C10.847 0.126827 10.8703 0.126827 10.8703 -0.125242ZM33.7084 -0.125242C33.7787 -0.238916 33.7376 -0.331925 33.6173 -0.331925C33.4969 -0.331925 33.3984 -0.238916 33.3984 -0.125242C33.3984 -0.011568 33.4394 0.0814351 33.4895 0.0814351C33.5397 0.0814351 33.6382 -0.011568 33.7084 -0.125242ZM34.285 -0.331925C34.3445 -0.559274 34.3088 -0.745286 34.2058 -0.745286C34.1027 -0.745286 34.0185 -0.559274 34.0185 -0.331925C34.0185 -0.104578 34.0541 0.0814351 34.0977 0.0814351C34.1413 0.0814351 34.2256 -0.104578 34.285 -0.331925ZM42.699 -0.00970684C42.699 -0.0598335 42.606 -0.158329 42.4923 -0.228584C42.3787 -0.298841 42.2857 -0.257823 42.2857 -0.137442C42.2857 -0.0170591 42.3787 0.0814351 42.4923 0.0814351C42.606 0.0814351 42.699 0.0404245 42.699 -0.00970684ZM3.84314 -0.331925C3.84314 -0.4456 3.80212 -0.538603 3.75199 -0.538603C3.70184 -0.538603 3.60337 -0.4456 3.53311 -0.331925C3.46289 -0.218252 3.5039 -0.125242 3.62426 -0.125242C3.74465 -0.125242 3.84314 -0.218252 3.84314 -0.331925ZM36.7368 -0.527541C37.4435 -0.957314 38.5004 -2.37773 38.6973 -3.1624C38.7631 -3.42442 38.8766 -3.63867 38.9495 -3.63851C39.0225 -3.63834 39.0356 -4.47236 38.9788 -5.49188C38.8502 -7.79789 38.5956 -8.16611 37.4226 -7.74233C36.6854 -7.47597 35.6719 -6.44199 35.6719 -5.95617C35.6719 -5.83125 35.5055 -5.60752 35.302 -5.45898C35.0144 -5.24899 34.919 -4.84407 34.8733 -3.63881C34.8133 -2.05727 35.0309 -1.13276 35.615 -0.487314C36.0157 -0.0445612 35.938 -0.0417749 36.7368 -0.527541ZM35.9283 -1.77588C35.513 -2.44083 35.6302 -3.389 36.3014 -4.79549C37.3129 -6.9149 38.2442 -7.06755 38.1995 -5.10665C38.1668 -3.67038 37.0575 -1.36532 36.3991 -1.36532C36.2811 -1.36532 36.0693 -1.55007 35.9283 -1.77588ZM37.3253 -5.29225C37.3253 -5.40592 37.2323 -5.49893 37.1187 -5.49893C37.005 -5.49893 36.912 -5.40592 36.912 -5.29225C36.912 -5.17857 37.005 -5.08557 37.1187 -5.08557C37.2323 -5.08557 37.3253 -5.17857 37.3253 -5.29225ZM6.87899 -0.640806C7.36958 -0.984427 7.63592 -2.11448 7.60494 -3.72101C7.57877 -5.07779 6.50762 -7.19469 5.5999 -7.68354C4.9817 -8.01646 4.9172 -8.01526 4.37637 -7.6609C4.06236 -7.45515 3.72091 -7.0645 3.61761 -6.79278C3.31737 -6.00308 3.39382 -3.4668 3.73977 -2.73998C4.17717 -1.82106 5.09517 -0.803014 5.70325 -0.562496C6.39393 -0.289311 6.3754 -0.288079 6.87899 -0.640806ZM5.75492 -1.51286C5.61283 -1.56434 5.49657 -1.74113 5.49657 -1.90574C5.49657 -2.07034 5.36558 -2.25529 5.20547 -2.31672C4.7388 -2.4958 4.37318 -3.64038 4.36625 -4.94389C4.36156 -5.88732 4.4439 -6.21311 4.74413 -6.43292C5.04537 -6.65348 5.21285 -6.66155 5.51917 -6.47025C5.73409 -6.33603 5.90994 -6.10908 5.90994 -5.96591C5.90994 -5.82274 5.9919 -5.70561 6.09208 -5.70561C6.34748 -5.70561 6.73666 -4.04744 6.73666 -2.95928C6.73666 -2.01695 6.26828 -1.32688 5.75492 -1.51286ZM22.6444 -0.773041C23.1748 -1.16524 23.2565 -1.37935 23.3806 -2.70394C23.5303 -4.30176 23.2143 -6.99906 22.8637 -7.11594C22.7467 -7.15492 22.651 -7.28507 22.651 -7.40516C22.651 -7.69938 22.007 -8.17106 21.5942 -8.1792C21.1522 -8.18791 20.2253 -7.24256 19.7367 -6.28492C18.9689 -4.77987 19.3626 -1.73439 20.4424 -0.82579C21.1685 -0.214818 21.8667 -0.198094 22.6444 -0.773041ZM20.9432 -1.87929C20.438 -2.57386 20.2799 -4.02361 20.5751 -5.25405C20.7762 -6.09253 20.938 -6.33641 21.4274 -6.53912C22.4661 -6.96941 22.651 -6.60767 22.651 -4.14497C22.651 -2.48411 22.5795 -1.94335 22.3263 -1.69011C21.8657 -1.2295 21.3662 -1.29783 20.9432 -1.87929ZM3.12734 -0.960343C3.49846 -1.37043 3.49843 -1.4 3.12578 -2.0305C2.64792 -2.83944 2.46707 -5.26958 2.7946 -6.48066C2.92525 -6.96378 3.10177 -7.35905 3.18688 -7.35905C3.27198 -7.35905 3.35515 -7.53881 3.3717 -7.75852C3.43138 -8.55071 2.60789 -8.14761 2.0418 -7.10752C1.74587 -6.56382 1.44878 -6.11897 1.38159 -6.11897C1.31441 -6.11897 0.90261 -6.5375 0.466499 -7.04903C-0.137145 -7.75707 -0.470177 -7.97909 -0.928589 -7.97909C-1.66477 -7.97909 -1.67918 -7.85404 -1.01404 -7.23761C-0.729857 -6.97423 -0.497355 -6.66592 -0.497355 -6.55247C-0.497355 -6.43902 -0.380111 -6.27181 -0.236832 -6.18091C0.235165 -5.88146 1.41112 -3.18597 1.68374 -1.77869C1.93119 -0.501247 2.4472 -0.208806 3.12734 -0.960343ZM14.4307 -0.900293C14.6054 -1.09922 14.8125 -1.4726 14.891 -1.73002C14.9694 -1.98744 15.1022 -2.15565 15.1861 -2.10384C15.4333 -1.95104 15.2203 -4.45602 14.8607 -5.92946C14.5906 -7.03631 14.4068 -7.37358 13.8751 -7.73791C13.5156 -7.98423 13.0693 -8.18577 12.8833 -8.18577C11.9211 -8.18577 10.8773 -6.18474 10.8725 -4.33104C10.8702 -3.44014 11.5836 -1.64816 12.2211 -0.943763C12.6939 -0.421332 13.9878 -0.395879 14.4307 -0.900293ZM12.5562 -1.98469C12.2155 -2.32535 11.8764 -2.87902 11.8026 -3.21508C11.5971 -4.15048 11.9553 -6.11897 12.3309 -6.11897C12.437 -6.11897 12.5237 -6.25848 12.5237 -6.42899C12.5237 -6.84377 13.2362 -6.82371 13.663 -6.39691C14.1833 -5.87658 14.3839 -5.1765 14.3831 -3.8837C14.3823 -2.72994 13.833 -1.36532 13.3694 -1.36532C13.2628 -1.36532 12.8968 -1.64404 12.5562 -1.98469ZM40.4321 -0.958567C40.6631 -1.18955 40.9366 -1.81734 41.0399 -2.35366C41.4443 -4.45295 42.2567 -6.14611 43.367 -7.20404L44.1804 -7.97909H43.5711C43.1888 -7.97909 42.7009 -7.74921 42.262 -7.36235C41.8772 -7.02315 41.4877 -6.74413 41.3965 -6.74231C41.3053 -6.74051 41.1335 -7.01803 41.0146 -7.35905C40.8957 -7.70007 40.7378 -7.98684 40.6637 -7.99631C39.6322 -8.12811 39.7021 -8.31692 39.7021 -5.39982C39.7021 -3.23047 39.6342 -2.58688 39.3612 -2.17023C39.0456 -1.68861 39.0454 -1.60853 39.3573 -1.09424C39.7616 -0.427881 39.8858 -0.412223 40.4321 -0.958567ZM10.213 -1.26371C10.7256 -1.85335 10.7769 -2.20285 10.4052 -2.57465C9.99667 -2.98336 10.0784 -6.46579 10.517 -7.33929C10.9415 -8.18464 10.9391 -8.15946 10.5893 -8.10811C10.1627 -8.04551 9.6665 -7.47261 9.51461 -6.86747C9.43985 -6.56956 9.31641 -6.32581 9.24033 -6.32581C9.02104 -6.32581 8.44522 -7.06654 8.2939 -7.54331C8.16698 -7.94321 7.26289 -8.36772 7.03132 -8.13615C6.97664 -8.08147 7.24599 -7.38132 7.62989 -6.58027C8.2007 -5.38919 8.35424 -4.77477 8.47249 -3.20832C8.5812 -1.76823 8.70433 -1.22655 8.96861 -1.02572C9.4781 -0.638552 9.70754 -0.682428 10.213 -1.26371ZM26.8194 -1.61586C27.1219 -1.91088 27.1447 -2.07672 26.957 -2.61526C26.7222 -3.28871 26.8675 -5.40043 27.1758 -5.79549C27.2703 -5.91666 27.4088 -6.27155 27.4835 -6.58416C27.5581 -6.89676 27.7105 -7.15253 27.822 -7.15253C27.9335 -7.15253 28.0247 -7.25853 28.0247 -7.38809C28.0247 -7.51765 28.1875 -7.74721 28.3864 -7.89822C28.7077 -8.14211 28.661 -8.17351 27.9686 -8.17935C27.3344 -8.18466 27.1453 -8.08962 26.9537 -7.66923C26.8242 -7.38504 26.6465 -7.15253 26.5587 -7.15253C26.4709 -7.15253 26.3401 -6.96651 26.2679 -6.73917C26.0509 -6.05541 25.6085 -6.2698 25.2033 -7.25509C24.8765 -8.04991 24.7357 -8.18449 24.2307 -8.18515C23.7526 -8.18577 23.6669 -8.11711 23.7804 -7.82424C24.2361 -6.6488 24.5112 -4.97928 24.5112 -3.38886C24.5112 -2.38968 24.5899 -1.57216 24.6862 -1.57216C24.7825 -1.57216 25.0755 -1.38636 25.3373 -1.15928C25.8406 -0.722813 25.933 -0.751275 26.8194 -1.61586ZM29.9756 -0.983973C31.0844 -1.48917 31.8416 -3.47743 31.6967 -5.50287C31.567 -7.316 31.3049 -7.77257 30.3938 -7.77257C29.8344 -7.77257 29.518 -7.60374 28.9513 -7.00287C28.1954 -6.20154 27.8829 -5.41907 27.6901 -3.84564C27.5485 -2.6897 27.9497 -1.68322 28.7671 -1.14442C29.4807 -0.673967 29.337 -0.693037 29.9756 -0.983973ZM28.7724 -2.47897C28.4558 -3.74045 29.4431 -6.31376 30.334 -6.54902C30.815 -6.67605 30.9203 -6.61323 31.1481 -6.06307C31.3675 -5.53355 31.3525 -5.21257 31.0556 -4.08076C30.643 -2.50729 30.2461 -1.98552 29.4619 -1.98552C29.038 -1.98552 28.8652 -2.10921 28.7724 -2.47897ZM30.5049 -3.35333C30.5049 -3.52385 30.4119 -3.60588 30.2982 -3.53563C30.1845 -3.46537 30.0915 -3.26838 30.0915 -3.09787C30.0915 -2.92735 30.1845 -2.84533 30.2982 -2.91558C30.4119 -2.98584 30.5049 -3.18282 30.5049 -3.35333ZM33.5192 -1.11941C33.862 -1.40608 33.978 -1.81616 34.0874 -3.12767C34.2632 -5.23433 34.7651 -6.63733 35.6519 -7.50095C36.2647 -8.09766 36.3011 -8.18593 35.9343 -8.18593C35.7027 -8.18593 35.1637 -7.79897 34.736 -7.32557C33.8869 -6.38571 33.9134 -6.3785 33.1497 -7.75709C32.7274 -8.51927 32.041 -8.6474 32.2363 -7.92758C32.3058 -7.67181 32.4729 -6.64821 32.6078 -5.65292C32.8231 -4.06461 32.8095 -3.70489 32.4964 -2.7116C31.9735 -1.05271 32.4858 -0.255266 33.5192 -1.11941ZM18.1795 -1.41715C18.3595 -1.70414 18.5118 -2.71303 18.5773 -4.05232C18.6681 -5.90897 18.7636 -6.36428 19.2382 -7.2042C19.7688 -8.14341 19.7748 -8.18593 19.3758 -8.18593C19.1463 -8.18593 18.9039 -8.02317 18.837 -7.82424C18.77 -7.62531 18.4576 -7.1525 18.1426 -6.77356L17.5698 -6.08458L17.0619 -7.08359C16.6307 -7.93168 16.4525 -8.09237 15.8823 -8.14735C15.1394 -8.21898 15.0129 -7.90617 15.4534 -7.08727C15.7862 -6.46873 16.0313 -5.25589 16.1711 -3.53563C16.2666 -2.3612 16.3891 -1.98187 16.8217 -1.52049C17.4687 -0.830477 17.796 -0.805572 18.1795 -1.41715ZM51.1729 -10.8211L51.1729 -12.5262L47.401 -12.5505C45.3264 -12.5638 41.5829 -12.6335 39.0821 -12.7055C36.5813 -12.7774 34.477 -12.7566 34.406 -12.6592C34.335 -12.5619 33.8996 -12.535 33.4385 -12.5995C32.9775 -12.664 30.7569 -12.7012 28.504 -12.6822C26.2511 -12.6633 19.7575 -12.6188 14.0738 -12.5835C8.3901 -12.5482 1.04262 -12.4976 -2.25393 -12.4711L-8.24766 -12.4229L-8.30789 -10.827L-8.36811 -9.23111L-5.51766 -9.17355C-3.94992 -9.14189 9.44681 -9.116 24.2529 -9.116H51.1729L51.1729 -10.8211Z" fill="url(#paint1_linear_320_4579)"/>
<path d="M23.3672 13.4243C22.0328 13.2754 21.1432 14.0447 20.8652 14.448C21.5139 15.7508 26.0544 14.448 26.0544 14.448C26.0544 14.448 25.0351 13.6104 23.3672 13.4243Z" fill="#64E2DB"/>
<path d="M17.4418 13.4243C18.7484 13.2754 19.6194 14.0447 19.8916 14.448C19.2565 15.7508 14.8105 14.448 14.8105 14.448C14.8105 14.448 15.8086 13.6104 17.4418 13.4243Z" fill="#64E2DB"/>
<path d="M18.2699 20.1081C18.2699 20.1081 18.9478 19.9546 19.378 19.8919C19.8083 19.8292 20.4861 19.7838 20.4861 19.7838C20.4861 19.7838 21.164 19.8292 21.5942 19.8919C22.0245 19.9546 22.7023 20.1081 22.7023 20.1081C22.7023 20.1081 22.8712 20.5405 22.7023 20.5405C22.1618 20.5405 20.4861 20.7568 20.4861 20.7568C20.4861 20.7568 19.2429 20.6486 18.2699 20.5405C18.1021 20.5219 18.2699 20.1081 18.2699 20.1081Z" fill="#64E2DB"/>
<path d="M20.7109 15.4595C20.5976 15.4595 20.4844 15.4595 20.3711 15.4595C20.3668 15.5126 20.3624 15.5658 20.358 15.6189C20.2792 16.5757 20.2005 17.5324 20.1217 18.4892C20.1173 18.5424 20.113 18.5955 20.1086 18.6487C20.3969 18.6487 20.6852 18.6487 20.9734 18.6487C20.9691 18.5955 20.9647 18.5424 20.9603 18.4892C20.8816 17.5324 20.8028 16.5757 20.724 15.6189C20.7197 15.5658 20.7153 15.5126 20.7109 15.4595Z" fill="#A1FCF0"/>
<circle cx="23.189" cy="13.7838" r="0.702703" fill="#010D56"/>
<circle cx="17.4595" cy="13.7838" r="0.702703" fill="#010D56"/>
</g>
<defs>
<linearGradient id="paint0_linear_320_4579" x1="16" y1="0" x2="16" y2="32" gradientUnits="userSpaceOnUse">
<stop stop-color="#020A48"/>
<stop offset="1" stop-color="#001066"/>
</linearGradient>
<linearGradient id="paint1_linear_320_4579" x1="21.4051" y1="-13.4054" x2="21.4051" y2="57.1658" gradientUnits="userSpaceOnUse">
<stop stop-color="#FFB42A"/>
<stop offset="0.410796" stop-color="#5CE5E5"/>
<stop offset="1" stop-color="#F531AE"/>
</linearGradient>
<clipPath id="clip0_320_4579">
<rect width="32" height="32" fill="white"/>
</clipPath>
</defs>
</svg>
